<?xml version="1.0" encoding="UTF-8"?>
<!-- Generator: Adobe Illustrator 19.2.1, SVG Export Plug-In . SVG Version: 6.00 Build 0)  -->
<svg version="1.1" id="COLLADA" xmlns="http://www.w3.org/2000/svg" xmlns:xlink="http://www.w3.org/1999/xlink" x="0px" y="0px" viewBox="0 0 1700 500" style="enable-background:new 0 0 1700 500;" xml:space="preserve"><link xmlns="" type="text/css" rel="stylesheet" id="dark-mode-custom-link"/><link xmlns="" type="text/css" rel="stylesheet" id="dark-mode-general-link"/><style xmlns="" lang="en" type="text/css" id="dark-mode-custom-style"/><style xmlns="" lang="en" type="text/css" id="dark-mode-native-style"/>
<style type="text/css">
	.st0{fill:#F1A42B;}
	.st1{fill:#231F20;}
	.st2{enable-background:new    ;}
</style>
<g id="COLLADA_1_">
	<g>
		<g>
			<path class="st0" d="M500.2,342c-68.6-2.4-162.2-34.6-181.6-81.2c-16.9-42.5-0.3-92,78.8-127.2c46.9-20.3,117.9-26.1,172.6-21.1     c77.7,7.2,151.7,48.6,151.8,48.7l0.1,58.2l0,3.9c0,0-24.1-22.5-54.2-40.6c-28.3-17.1-54.3-29.1-105.8-33.9     c-12-1.1-32.6-3.9-65.8,1c-13.4,2-32.3,3.5-74.9,22.9c-13.8,6.8-26.5,14.1-36.3,22.6c-5.1,4.4-12.1,10.7-17,15.9     c-12.1,15.8-18.5,27.6-15.4,49c3.6,16.1,10.5,26.2,30.5,41.6c8.7,6.7,9.7,6.6,13.5,8.7c35.8,19.1,64.4,26.1,105.3,31.3"/>
			<path class="st0" d="M503.5,157c68.7-0.4,166.2,27.9,191.6,73.6c22.3,41.7,12.1,91.8-62.2,130.1c-44.2,22.1-114.3,30.9-169.5,28     c-78.4-4-157.5-42.3-157.7-42.4l-7.6-58l-0.4-3.9c0,0,26.9,21.5,59.3,38.3c30.5,15.9,57.9,26.8,109.9,29.5     c12.2,0.6,33,2.5,65.5-3.6c13.1-2.5,31.8-4.8,71.7-25.8c12.9-7.4,24.6-15.2,33.3-24c4.6-4.6,10.7-11.1,15-16.6     c10.1-16.2,14.9-28.3,9.1-49.5c-5.6-15.9-13.9-25.7-35.8-40.2c-9.5-6.3-10.5-6.2-14.6-8.1c-38.2-17.5-67.6-23.4-109.1-26.9"/>
		</g>
	</g>
	<g>
		<path class="st1" d="M243.4,237.1c-2.7-19.2-21.1-33.9-42.2-33.9c-38.2,0-52.5,32.5-52.5,66.3c0,32.2,14.4,64.7,52.5,64.7    c26,0,40.6-17.9,43.9-43.3h41.2c-4.3,48.2-37.6,79.1-85,79.1c-59.8,0-95.1-44.7-95.1-100.5c0-57.4,35.2-102.1,95.1-102.1    c42.5,0,78.3,24.9,83.4,69.6H243.4z"/>
		<path class="st1" d="M744.7,172.1h42.5v157.6h94.2v35.7H744.7V172.1z"/>
		<path class="st1" d="M890.4,172.1H933v157.6h94.2v35.7H890.4V172.1z"/>
		<path class="st1" d="M1109.5,172.1h43.6l72.3,193.4h-44.1l-14.6-43.1h-72.3l-15.2,43.1h-43.1L1109.5,172.1z M1105.4,290.7h50.1    l-24.4-70.9h-0.5L1105.4,290.7z"/>
		<path class="st1" d="M1234.6,172.1h83.4c50.1,0,87.7,31.4,87.7,95.6c0,56.1-28.7,97.8-87.7,97.8h-83.4V172.1z M1277.2,329.7h37.9    c24.6,0,48.2-15.2,48.2-58c0-39-13.5-63.9-55.8-63.9h-30.3V329.7z"/>
		<path class="st1" d="M1463.6,172.1h43.6l72.3,193.4h-44.1l-14.6-43.1h-72.3l-15.2,43.1h-43.1L1463.6,172.1z M1459.6,290.7h50.1    l-24.4-70.9h-0.5L1459.6,290.7z"/>
	</g>
</g>
<g id="TM_2_" class="st2">
	<path class="st1" d="M1612.2,347.5h-7.3v18.9h-6.3v-18.9h-7.3V342h20.9V347.5z"/>
	<path class="st1" d="M1615.1,342h9.3l4.2,16.2h0.1l4.2-16.2h9.3v24.4h-6v-18.5h-0.1l-5.1,18.5h-4.8l-5.1-18.5h-0.1v18.5h-6V342z"/>
</g>
</svg>