<?xml version="1.0" encoding="UTF-8" standalone="no"?>
<!-- Created with Inkscape (http://www.inkscape.org/) -->

<svg
   xmlns:dc="http://purl.org/dc/elements/1.1/"
   xmlns:cc="http://creativecommons.org/ns#"
   xmlns:rdf="http://www.w3.org/1999/02/22-rdf-syntax-ns#"
   xmlns:svg="http://www.w3.org/2000/svg"
   xmlns="http://www.w3.org/2000/svg"
   xmlns:sodipodi="http://sodipodi.sourceforge.net/DTD/sodipodi-0.dtd"
   xmlns:inkscape="http://www.inkscape.org/namespaces/inkscape"
   width="210mm"
   height="297mm"
   viewBox="0 0 744.09448819 1052.3622047"
   id="svg4294"
   version="1.1"
   inkscape:version="0.91 r13725"
   inkscape:export-filename="/home/rutledge/dev/osdc-2015-touch/presentation/images/finger3.png"
   inkscape:export-xdpi="90"
   inkscape:export-ydpi="90"
   sodipodi:docname="finger.svg">
  <defs
     id="defs4296" />
  <sodipodi:namedview
     id="base"
     pagecolor="#8c8c8c"
     bordercolor="#666666"
     borderopacity="1.0"
     inkscape:pageopacity="0"
     inkscape:pageshadow="2"
     inkscape:zoom="1.979899"
     inkscape:cx="302.60541"
     inkscape:cy="469.34965"
     inkscape:document-units="px"
     inkscape:current-layer="layer1"
     showgrid="false"
     inkscape:window-width="1600"
     inkscape:window-height="1179"
     inkscape:window-x="1920"
     inkscape:window-y="0"
     inkscape:window-maximized="1" />
  <metadata
     id="metadata4299">
    <rdf:RDF>
      <cc:Work
         rdf:about="">
        <dc:format>image/svg+xml</dc:format>
        <dc:type
           rdf:resource="http://purl.org/dc/dcmitype/StillImage" />
        <dc:title></dc:title>
      </cc:Work>
    </rdf:RDF>
  </metadata>
  <g
     inkscape:label="Layer 1"
     inkscape:groupmode="layer"
     id="layer1">
    <circle
       r="65.930092"
       cy="455.39792"
       cx="267.32144"
       id="circle4858"
       style="opacity:1;fill:#ffffff;fill-opacity:0.50196081;stroke:none;stroke-width:12.02633572;stroke-linecap:round;stroke-linejoin:round;stroke-miterlimit:4;stroke-dasharray:none;stroke-dashoffset:0;stroke-opacity:1" />
    <path
       d="m 253.84839,719.10085 c 0,-23.552 -9.421,-32.973 -18.842,-51.81503 -4.7105,-4.7105 -11.111,-27.246 -63.953,-54.742 17.711,-28.293 39.137,-2.243 74.238,-2.2715 2.7114,-38.522 8.6766,-91.868 8.6766,-136.37 0,-55.331 28.26701,-55.331 29.55301,0 1.0226,44.012 -1.2856,61.586 -1.2856,78.853 0,-21.116 46.032,-8.0101 63.145,6.9147 14.996,13.079 35.753,26.954 34.574,47.729 -1.9817,34.92 -29.362,54.605 -31.746,75.49803 -0.7848,11.126 -0.15005,19.369 -0.15005,36.209"
       inkscape:connector-curvature="0"
       style="fill:none;fill-opacity:1;stroke:#ffffff;stroke-width:10;stroke-miterlimit:4;stroke-dasharray:none;stroke-opacity:1"
       sodipodi:nodetypes="ccccsscsscc"
       id="path4856" />
    <circle
       style="opacity:1;fill:none;fill-opacity:1;stroke:#00b3eb;stroke-width:10;stroke-linecap:round;stroke-linejoin:round;stroke-miterlimit:4;stroke-dasharray:none;stroke-dashoffset:0;stroke-opacity:1"
       id="path4854"
       cx="267.32144"
       cy="455.39792"
       r="54.82143" />
    <circle
       style="opacity:1;fill:none;fill-opacity:1;stroke:#464646;stroke-width:10;stroke-linecap:round;stroke-linejoin:round;stroke-miterlimit:4;stroke-dasharray:none;stroke-dashoffset:0;stroke-opacity:1"
       id="path4850"
       cx="267.32144"
       cy="455.39792"
       r="18.571428" />
    <circle
       style="opacity:1;fill:none;fill-opacity:1;stroke:#464646;stroke-width:10;stroke-linecap:round;stroke-linejoin:round;stroke-miterlimit:4;stroke-dasharray:none;stroke-dashoffset:0;stroke-opacity:1"
       id="path4852"
       cx="267.32144"
       cy="455.39792"
       r="35.714287" />
    <path
       id="path3759"
       sodipodi:nodetypes="ccccsscsscc"
       style="fill:#000000;fill-opacity:0.24257426;stroke:none;stroke-width:10;stroke-miterlimit:4;stroke-dasharray:none;stroke-opacity:0"
       inkscape:connector-curvature="0"
       d="m 253.84839,719.10085 c 0,-23.552 -9.421,-32.973 -18.842,-51.81503 -4.7105,-4.7105 -11.111,-27.246 -63.953,-54.742 17.711,-28.293 39.137,-2.243 74.238,-2.2715 2.7114,-38.522 8.6766,-91.868 8.6766,-136.37 0,-55.331 28.26701,-55.331 29.55301,0 1.0226,44.012 -1.2856,61.586 -1.2856,78.853 0,-21.116 46.032,-8.0101 63.145,6.9147 14.996,13.079 35.753,26.954 34.574,47.729 -1.9817,34.92 -29.362,54.605 -31.746,75.49803 -0.7848,11.126 -0.15005,19.369 -0.15005,36.209" />
  </g>
</svg>
