<?xml version="1.0" encoding="UTF-8" standalone="no"?>
<svg
   xmlns:dc="http://purl.org/dc/elements/1.1/"
   xmlns:cc="http://creativecommons.org/ns#"
   xmlns:rdf="http://www.w3.org/1999/02/22-rdf-syntax-ns#"
   xmlns:svg="http://www.w3.org/2000/svg"
   xmlns="http://www.w3.org/2000/svg"
   xmlns:sodipodi="http://sodipodi.sourceforge.net/DTD/sodipodi-0.dtd"
   xmlns:inkscape="http://www.inkscape.org/namespaces/inkscape"
   version="1.1"
   viewBox="0 0 536 454.89502"
   stroke-miterlimit="10"
   id="svg2"
   inkscape:version="0.91 r13725"
   sodipodi:docname="Developing user interfaces with Qt Quick Controls 2(1).svg"
   width="536"
   height="454.89502"
   style="fill:none;stroke:none;stroke-linecap:square;stroke-miterlimit:10">
  <metadata
     id="metadata111">
    <rdf:RDF>
      <cc:Work
         rdf:about="">
        <dc:format>image/svg+xml</dc:format>
        <dc:type
           rdf:resource="http://purl.org/dc/dcmitype/StillImage" />
        <dc:title></dc:title>
      </cc:Work>
    </rdf:RDF>
  </metadata>
  <defs
     id="defs109" />
  <sodipodi:namedview
     pagecolor="#ffffff"
     bordercolor="#666666"
     borderopacity="1"
     objecttolerance="10"
     gridtolerance="10"
     guidetolerance="10"
     inkscape:pageopacity="0"
     inkscape:pageshadow="2"
     inkscape:window-width="1559"
     inkscape:window-height="955"
     id="namedview107"
     showgrid="false"
     fit-margin-top="0"
     fit-margin-left="0"
     fit-margin-right="0"
     fit-margin-bottom="0"
     inkscape:zoom="0.79770484"
     inkscape:cx="16"
     inkscape:cy="225.39502"
     inkscape:window-x="29"
     inkscape:window-y="159"
     inkscape:window-maximized="0"
     inkscape:current-layer="svg2" />
  <clipPath
     id="p10.0">
    <path
       d="m 0,0 1280,0 0,720 L 0,720 0,0 Z"
       id="path5"
       inkscape:connector-curvature="0"
       style="clip-rule:nonzero" />
  </clipPath>
  <path
     style="fill:#f3f3f4;fill-rule:nonzero"
     inkscape:connector-curvature="0"
     id="path49"
     d="m 82.105,0.5 111.59058,0 0,80 -111.59058,0 z" />
  <path
     style="fill-rule:nonzero;stroke:#3a4055;stroke-width:1;stroke-linecap:butt;stroke-linejoin:round"
     inkscape:connector-curvature="0"
     id="path51"
     d="m 82.105,0.5 111.59058,0 0,80 -111.59058,0 z" />
  <path
     style="fill:#000000;fill-rule:nonzero"
     inkscape:connector-curvature="0"
     id="path53"
     d="m 117.0129,45.96687 q 1.26562,0.85937 2.3125,1.26562 l -0.53125,1.25 q -1.45313,-0.53125 -2.92188,-1.67187 -1.5,0.84375 -3.32812,0.84375 -1.84375,0 -3.35938,-0.89063 -1.5,-0.89062 -2.3125,-2.5 -0.8125,-1.625 -0.8125,-3.64062 0,-2.01563 0.8125,-3.65625 0.82813,-1.65625 2.32813,-2.51563 1.51562,-0.875 3.375,-0.875 1.89062,0 3.39062,0.90625 1.51563,0.89063 2.3125,2.5 0.79688,1.60938 0.79688,3.625 0,1.6875 -0.51563,3.03125 -0.51562,1.32813 -1.54687,2.32813 z m -3.95313,-2.29688 q 1.5625,0.42188 2.5625,1.29688 1.59375,-1.45313 1.59375,-4.35938 0,-1.65625 -0.5625,-2.875 -0.5625,-1.23437 -1.64062,-1.92187 -1.07813,-0.6875 -2.42188,-0.6875 -2.01562,0 -3.34375,1.39062 -1.32812,1.375 -1.32812,4.10938 0,2.65625 1.3125,4.07812 1.3125,1.40625 3.35937,1.40625 0.95313,0 1.8125,-0.35937 -0.84375,-0.54688 -1.78125,-0.78125 l 0.4375,-1.29688 z m 11.60523,2.25 0.23437,1.48438 q -0.70312,0.14062 -1.26562,0.14062 -0.90625,0 -1.40625,-0.28125 -0.5,-0.29687 -0.70313,-0.75 -0.20312,-0.46875 -0.20312,-1.98437 l 0,-5.65625 -1.23438,0 0,-1.3125 1.23438,0 0,-2.4375 1.65625,-1 0,3.4375 1.6875,0 0,1.3125 -1.6875,0 0,5.75 q 0,0.71875 0.0781,0.92187 0.0937,0.20313 0.29688,0.32813 0.20312,0.125 0.57812,0.125 0.26563,0 0.73438,-0.0781 z m 17.22595,0.0469 q 1.26563,0.85937 2.3125,1.26562 l -0.53125,1.25 q -1.45312,-0.53125 -2.92187,-1.67187 -1.5,0.84375 -3.32813,0.84375 -1.84375,0 -3.35937,-0.89063 -1.5,-0.89062 -2.3125,-2.5 -0.8125,-1.625 -0.8125,-3.64062 0,-2.01563 0.8125,-3.65625 0.82812,-1.65625 2.32812,-2.51563 1.51563,-0.875 3.375,-0.875 1.89063,0 3.39063,0.90625 1.51562,0.89063 2.3125,2.5 0.79687,1.60938 0.79687,3.625 0,1.6875 -0.51562,3.03125 -0.51563,1.32813 -1.54688,2.32813 z m -3.95312,-2.29688 q 1.5625,0.42188 2.5625,1.29688 1.59375,-1.45313 1.59375,-4.35938 0,-1.65625 -0.5625,-2.875 -0.5625,-1.23437 -1.64063,-1.92187 -1.07812,-0.6875 -2.42187,-0.6875 -2.01563,0 -3.34375,1.39062 -1.32813,1.375 -1.32813,4.10938 0,2.65625 1.3125,4.07812 1.3125,1.40625 3.35938,1.40625 0.95312,0 1.8125,-0.35937 -0.84375,-0.54688 -1.78125,-0.78125 l 0.4375,-1.29688 z m 8.10516,3.75 0,-13.59375 2.71875,0 3.21875,9.625 q 0.4375,1.34375 0.64063,2.01563 0.23437,-0.75 0.73437,-2.1875 l 3.25,-9.45313 2.42188,0 0,13.59375 -1.73438,0 0,-11.39062 -3.95312,11.39062 -1.625,0 -3.9375,-11.57812 0,11.57812 -1.73438,0 z m 15.52521,0 0,-13.59375 1.79687,0 0,11.98438 6.70313,0 0,1.60937 -8.5,0 z" />
  <path
     style="fill:#f3f3f4;fill-rule:nonzero"
     inkscape:connector-curvature="0"
     id="path55"
     d="m 82.105,189.5 111.59058,0 0,80 -111.59058,0 z" />
  <path
     style="fill-rule:nonzero;stroke:#3a4055;stroke-width:1;stroke-linecap:butt;stroke-linejoin:round"
     inkscape:connector-curvature="0"
     id="path57"
     d="m 82.105,189.5 111.59058,0 0,80 -111.59058,0 z" />
  <path
     style="fill:#000000;fill-rule:nonzero"
     inkscape:connector-curvature="0"
     id="path59"
     d="m 113.38275,234.96686 q 1.26562,0.85937 2.3125,1.26562 l -0.53125,1.25 q -1.45313,-0.53125 -2.92188,-1.67187 -1.5,0.84375 -3.32812,0.84375 -1.84375,0 -3.35938,-0.89063 -1.5,-0.89062 -2.3125,-2.5 -0.8125,-1.625 -0.8125,-3.64062 0,-2.01563 0.8125,-3.65625 0.82813,-1.65625 2.32813,-2.51563 1.51562,-0.875 3.375,-0.875 1.89062,0 3.39062,0.90625 1.51563,0.89063 2.3125,2.5 0.79688,1.60938 0.79688,3.625 0,1.6875 -0.51563,3.03125 -0.51562,1.32813 -1.54687,2.32813 z m -3.95313,-2.29688 q 1.5625,0.42188 2.5625,1.29688 1.59375,-1.45313 1.59375,-4.35938 0,-1.65625 -0.5625,-2.875 -0.5625,-1.23437 -1.64062,-1.92187 -1.07813,-0.6875 -2.42188,-0.6875 -2.01562,0 -3.34375,1.39062 -1.32812,1.375 -1.32812,4.10938 0,2.65625 1.3125,4.07812 1.3125,1.40625 3.35937,1.40625 0.95313,0 1.8125,-0.35937 -0.84375,-0.54688 -1.78125,-0.78125 l 0.4375,-1.29688 z m 11.60517,2.25 0.23437,1.48438 q -0.70312,0.14062 -1.26562,0.14062 -0.90625,0 -1.40625,-0.28125 -0.5,-0.29687 -0.70313,-0.75 -0.20312,-0.46875 -0.20312,-1.98437 l 0,-5.65625 -1.23438,0 0,-1.3125 1.23438,0 0,-2.4375 1.65625,-1 0,3.4375 1.6875,0 0,1.3125 -1.6875,0 0,5.75 q 0,0.71875 0.0781,0.92187 0.0937,0.20313 0.29688,0.32813 0.20312,0.125 0.57812,0.125 0.26563,0 0.73438,-0.0781 z m 17.22601,0.0469 q 1.26563,0.85937 2.3125,1.26562 l -0.53125,1.25 q -1.45312,-0.53125 -2.92187,-1.67187 -1.5,0.84375 -3.32813,0.84375 -1.84375,0 -3.35937,-0.89063 -1.5,-0.89062 -2.3125,-2.5 -0.8125,-1.625 -0.8125,-3.64062 0,-2.01563 0.8125,-3.65625 0.82812,-1.65625 2.32812,-2.51563 1.51563,-0.875 3.375,-0.875 1.89063,0 3.39063,0.90625 1.51562,0.89063 2.3125,2.5 0.79687,1.60938 0.79687,3.625 0,1.6875 -0.51562,3.03125 -0.51563,1.32813 -1.54688,2.32813 z M 134.30768,232.67 q 1.5625,0.42188 2.5625,1.29688 1.59375,-1.45313 1.59375,-4.35938 0,-1.65625 -0.5625,-2.875 -0.5625,-1.23437 -1.64063,-1.92187 -1.07812,-0.6875 -2.42187,-0.6875 -2.01563,0 -3.34375,1.39062 -1.32813,1.375 -1.32813,4.10938 0,2.65625 1.3125,4.07812 1.3125,1.40625 3.35938,1.40625 0.95312,0 1.8125,-0.35937 -0.84375,-0.54688 -1.78125,-0.78125 l 0.4375,-1.29688 z m 14.40204,3.75 0,-1.45312 q -1.14063,1.67187 -3.125,1.67187 -0.85938,0 -1.625,-0.32812 -0.75,-0.34375 -1.125,-0.84375 -0.35938,-0.5 -0.51563,-1.23438 -0.0937,-0.5 -0.0937,-1.5625 l 0,-6.10937 1.67188,0 0,5.46875 q 0,1.3125 0.0937,1.76562 0.15625,0.65625 0.67187,1.03125 0.51563,0.375 1.26563,0.375 0.75,0 1.40625,-0.375 0.65625,-0.39062 0.92187,-1.04687 0.28125,-0.67188 0.28125,-1.9375 l 0,-5.28125 1.67188,0 0,9.85937 -1.5,0 z m 3.93823,-11.6875 0,-1.90625 1.67187,0 0,1.90625 -1.67187,0 z m 0,11.6875 0,-9.85937 1.67187,0 0,9.85937 -1.67187,0 z m 10.56671,-3.60937 1.64062,0.21875 q -0.26562,1.6875 -1.375,2.65625 -1.10937,0.95312 -2.73437,0.95312 -2.01563,0 -3.25,-1.3125 -1.21875,-1.32812 -1.21875,-3.79687 0,-1.59375 0.51562,-2.78125 0.53125,-1.20313 1.60938,-1.79688 1.09375,-0.60937 2.35937,-0.60937 1.60938,0 2.625,0.8125 1.01563,0.8125 1.3125,2.3125 l -1.625,0.25 q -0.23437,-1 -0.82812,-1.5 -0.59375,-0.5 -1.42188,-0.5 -1.26562,0 -2.0625,0.90625 -0.78125,0.90625 -0.78125,2.85937 0,1.98438 0.76563,2.89063 0.76562,0.89062 1.98437,0.89062 0.98438,0 1.64063,-0.59375 0.65625,-0.60937 0.84375,-1.85937 z m 2.90625,3.60937 0,-13.59375 1.67187,0 0,7.75 3.95313,-4.01562 2.15625,0 -3.76563,3.65625 4.14063,6.20312 -2.0625,0 -3.25,-5.03125 -1.17188,1.125 0,3.90625 -1.67187,0 z" />
  <path
     style="fill:#f3f3f4;fill-rule:nonzero"
     inkscape:connector-curvature="0"
     id="path61"
     d="m 82.105,374.39502 111.59058,0 0,80 -111.59058,0 z" />
  <path
     style="fill-rule:nonzero;stroke:#3a4055;stroke-width:1;stroke-linecap:butt;stroke-linejoin:round"
     inkscape:connector-curvature="0"
     id="path63"
     d="m 82.105,374.39502 111.59058,0 0,80 -111.59058,0 z" />
  <path
     style="fill:#000000;fill-rule:nonzero"
     inkscape:connector-curvature="0"
     id="path65"
     d="m 113.38275,408.8619 q 1.26562,0.85937 2.3125,1.26562 l -0.53125,1.25 q -1.45313,-0.53125 -2.92188,-1.67187 -1.5,0.84375 -3.32812,0.84375 -1.84375,0 -3.35938,-0.89063 -1.5,-0.89062 -2.3125,-2.5 -0.8125,-1.625 -0.8125,-3.64062 0,-2.01563 0.8125,-3.65625 0.82813,-1.65625 2.32813,-2.51563 1.51562,-0.875 3.375,-0.875 1.89062,0 3.39062,0.90625 1.51563,0.89063 2.3125,2.5 0.79688,1.60938 0.79688,3.625 0,1.6875 -0.51563,3.03125 -0.51562,1.32813 -1.54687,2.32813 z m -3.95313,-2.29688 q 1.5625,0.42188 2.5625,1.29688 1.59375,-1.45313 1.59375,-4.35938 0,-1.65625 -0.5625,-2.875 -0.5625,-1.23437 -1.64062,-1.92187 -1.07813,-0.6875 -2.42188,-0.6875 -2.01562,0 -3.34375,1.39062 -1.32812,1.375 -1.32812,4.10938 0,2.65625 1.3125,4.07812 1.3125,1.40625 3.35937,1.40625 0.95313,0 1.8125,-0.35937 -0.84375,-0.54688 -1.78125,-0.78125 l 0.4375,-1.29688 z m 11.60517,2.25 0.23437,1.48438 q -0.70312,0.14062 -1.26562,0.14062 -0.90625,0 -1.40625,-0.28125 -0.5,-0.29687 -0.70313,-0.75 -0.20312,-0.46875 -0.20312,-1.98437 l 0,-5.65625 -1.23438,0 0,-1.3125 1.23438,0 0,-2.4375 1.65625,-1 0,3.4375 1.6875,0 0,1.3125 -1.6875,0 0,5.75 q 0,0.71875 0.0781,0.92187 0.0937,0.20313 0.29688,0.32813 0.20312,0.125 0.57812,0.125 0.26563,0 0.73438,-0.0781 z m 17.22601,0.0469 q 1.26563,0.85937 2.3125,1.26562 l -0.53125,1.25 q -1.45312,-0.53125 -2.92187,-1.67187 -1.5,0.84375 -3.32813,0.84375 -1.84375,0 -3.35937,-0.89063 -1.5,-0.89062 -2.3125,-2.5 -0.8125,-1.625 -0.8125,-3.64062 0,-2.01563 0.8125,-3.65625 0.82812,-1.65625 2.32812,-2.51563 1.51563,-0.875 3.375,-0.875 1.89063,0 3.39063,0.90625 1.51562,0.89063 2.3125,2.5 0.79687,1.60938 0.79687,3.625 0,1.6875 -0.51562,3.03125 -0.51563,1.32813 -1.54688,2.32813 z m -3.95312,-2.29688 q 1.5625,0.42188 2.5625,1.29688 1.59375,-1.45313 1.59375,-4.35938 0,-1.65625 -0.5625,-2.875 -0.5625,-1.23437 -1.64063,-1.92187 -1.07812,-0.6875 -2.42187,-0.6875 -2.01563,0 -3.34375,1.39062 -1.32813,1.375 -1.32813,4.10938 0,2.65625 1.3125,4.07812 1.3125,1.40625 3.35938,1.40625 0.95312,0 1.8125,-0.35937 -0.84375,-0.54688 -1.78125,-0.78125 l 0.4375,-1.29688 z m 14.40204,3.75 0,-1.45312 q -1.14063,1.67187 -3.125,1.67187 -0.85938,0 -1.625,-0.32812 -0.75,-0.34375 -1.125,-0.84375 -0.35938,-0.5 -0.51563,-1.23438 -0.0937,-0.5 -0.0937,-1.5625 l 0,-6.10937 1.67188,0 0,5.46875 q 0,1.3125 0.0937,1.76562 0.15625,0.65625 0.67187,1.03125 0.51563,0.375 1.26563,0.375 0.75,0 1.40625,-0.375 0.65625,-0.39062 0.92187,-1.04687 0.28125,-0.67188 0.28125,-1.9375 l 0,-5.28125 1.67188,0 0,9.85937 -1.5,0 z m 3.93823,-11.6875 0,-1.90625 1.67187,0 0,1.90625 -1.67187,0 z m 0,11.6875 0,-9.85937 1.67187,0 0,9.85937 -1.67187,0 z m 10.56671,-3.60937 1.64062,0.21875 q -0.26562,1.6875 -1.375,2.65625 -1.10937,0.95312 -2.73437,0.95312 -2.01563,0 -3.25,-1.3125 -1.21875,-1.32812 -1.21875,-3.79687 0,-1.59375 0.51562,-2.78125 0.53125,-1.20313 1.60938,-1.79688 1.09375,-0.60937 2.35937,-0.60937 1.60938,0 2.625,0.8125 1.01563,0.8125 1.3125,2.3125 l -1.625,0.25 q -0.23437,-1 -0.82812,-1.5 -0.59375,-0.5 -1.42188,-0.5 -1.26562,0 -2.0625,0.90625 -0.78125,0.90625 -0.78125,2.85937 0,1.98438 0.76563,2.89063 0.76562,0.89062 1.98437,0.89062 0.98438,0 1.64063,-0.59375 0.65625,-0.60937 0.84375,-1.85937 z m 2.90625,3.60937 0,-13.59375 1.67187,0 0,7.75 3.95313,-4.01562 2.15625,0 -3.76563,3.65625 4.14063,6.20312 -2.0625,0 -3.25,-5.03125 -1.17188,1.125 0,3.90625 -1.67187,0 z" />
  <path
     style="fill:#000000;fill-rule:nonzero"
     inkscape:connector-curvature="0"
     id="path67"
     d="m 106.5581,427.5494 1.79687,0.45312 q -0.5625,2.21875 -2.03125,3.39063 -1.46875,1.15625 -3.59375,1.15625 -2.20312,0 -3.57812,-0.89063 -1.375,-0.90625 -2.09375,-2.59375 -0.71875,-1.70312 -0.71875,-3.65625 0,-2.125 0.79687,-3.70312 0.8125,-1.57813 2.3125,-2.39063 1.5,-0.82812 3.29688,-0.82812 2.04687,0 3.4375,1.04687 1.39062,1.03125 1.9375,2.90625 l -1.76563,0.42188 q -0.46875,-1.48438 -1.375,-2.15625 -0.90625,-0.6875 -2.26562,-0.6875 -1.5625,0 -2.625,0.75 -1.04688,0.75 -1.48438,2.03125 -0.42187,1.26562 -0.42187,2.60937 0,1.73438 0.5,3.03125 0.51562,1.28125 1.57812,1.92188 1.07813,0.64062 2.3125,0.64062 1.51563,0 2.5625,-0.85937 1.04688,-0.875 1.42188,-2.59375 z m 2.92609,-0.15625 q 0,-2.73438 1.53125,-4.0625 1.26562,-1.09375 3.09375,-1.09375 2.03125,0 3.3125,1.34375 1.29687,1.32812 1.29687,3.67187 0,1.90625 -0.57812,3 -0.5625,1.07813 -1.65625,1.6875 -1.07813,0.59375 -2.375,0.59375 -2.0625,0 -3.34375,-1.32812 -1.28125,-1.32813 -1.28125,-3.8125 z m 1.71875,0 q 0,1.89062 0.82812,2.82812 0.82813,0.9375 2.07813,0.9375 1.25,0 2.0625,-0.9375 0.82812,-0.95312 0.82812,-2.89062 0,-1.82813 -0.82812,-2.76563 -0.82813,-0.9375 -2.0625,-0.9375 -1.25,0 -2.07813,0.9375 -0.82812,0.9375 -0.82812,2.82813 z m 9.28198,4.92187 0,-9.85937 1.5,0 0,1.40625 q 1.09375,-1.625 3.14062,-1.625 0.89063,0 1.64063,0.32812 0.75,0.3125 1.10937,0.84375 0.375,0.51563 0.53125,1.21875 0.0937,0.46875 0.0937,1.625 l 0,6.0625 -1.67187,0 0,-6 q 0,-1.01562 -0.20313,-1.51562 -0.1875,-0.51563 -0.6875,-0.8125 -0.5,-0.29688 -1.17187,-0.29688 -1.0625,0 -1.84375,0.67188 -0.76563,0.67187 -0.76563,2.57812 l 0,5.375 -1.67187,0 z m 14.03192,-1.5 0.23437,1.48438 q -0.70312,0.14062 -1.26562,0.14062 -0.90625,0 -1.40625,-0.28125 -0.5,-0.29687 -0.70313,-0.75 -0.20312,-0.46875 -0.20312,-1.98437 l 0,-5.65625 -1.23438,0 0,-1.3125 1.23438,0 0,-2.4375 1.65625,-1 0,3.4375 1.6875,0 0,1.3125 -1.6875,0 0,5.75 q 0,0.71875 0.0781,0.92187 0.0937,0.20313 0.29688,0.32813 0.20312,0.125 0.57812,0.125 0.26563,0 0.73438,-0.0781 z m 1.51147,1.5 0,-9.85937 1.5,0 0,1.5 q 0.57813,-1.04688 1.0625,-1.375 0.48438,-0.34375 1.07813,-0.34375 0.84375,0 1.71875,0.54687 l -0.57813,1.54688 q -0.60937,-0.35938 -1.23437,-0.35938 -0.54688,0 -0.98438,0.32813 -0.42187,0.32812 -0.60937,0.90625 -0.28125,0.89062 -0.28125,1.95312 l 0,5.15625 -1.67188,0 z m 5.60328,-4.92187 q 0,-2.73438 1.53125,-4.0625 1.26562,-1.09375 3.09375,-1.09375 2.03125,0 3.3125,1.34375 1.29687,1.32812 1.29687,3.67187 0,1.90625 -0.57812,3 -0.5625,1.07813 -1.65625,1.6875 -1.07813,0.59375 -2.375,0.59375 -2.0625,0 -3.34375,-1.32812 -1.28125,-1.32813 -1.28125,-3.8125 z m 1.71875,0 q 0,1.89062 0.82812,2.82812 0.82813,0.9375 2.07813,0.9375 1.25,0 2.0625,-0.9375 0.82812,-0.95312 0.82812,-2.89062 0,-1.82813 -0.82812,-2.76563 -0.82813,-0.9375 -2.0625,-0.9375 -1.25,0 -2.07813,0.9375 -0.82812,0.9375 -0.82812,2.82813 z m 9.25073,4.92187 0,-13.59375 1.67187,0 0,13.59375 -1.67187,0 z m 3.50421,-2.9375 1.65625,-0.26562 q 0.14062,1 0.76562,1.53125 0.64063,0.51562 1.78125,0.51562 1.15625,0 1.70313,-0.46875 0.5625,-0.46875 0.5625,-1.09375 0,-0.5625 -0.48438,-0.89062 -0.34375,-0.21875 -1.70312,-0.5625 -1.84375,-0.46875 -2.5625,-0.79688 -0.70313,-0.34375 -1.07813,-0.9375 -0.35937,-0.60937 -0.35937,-1.32812 0,-0.65625 0.29687,-1.21875 0.3125,-0.5625 0.82813,-0.9375 0.39062,-0.28125 1.0625,-0.48438 0.67187,-0.20312 1.4375,-0.20312 1.17187,0 2.04687,0.34375 0.875,0.32812 1.28125,0.90625 0.42188,0.5625 0.57813,1.51562 l -1.625,0.21875 q -0.10938,-0.75 -0.65625,-1.17187 -0.53125,-0.4375 -1.5,-0.4375 -1.15625,0 -1.64063,0.39062 -0.48437,0.375 -0.48437,0.875 0,0.32813 0.20312,0.59375 0.20313,0.26563 0.64063,0.4375 0.25,0.0937 1.46875,0.4375 1.76562,0.46875 2.46875,0.76563 0.70312,0.29687 1.09375,0.875 0.40625,0.57812 0.40625,1.4375 0,0.82812 -0.48438,1.57812 -0.48437,0.73438 -1.40625,1.14063 -0.92187,0.39062 -2.07812,0.39062 -1.92188,0 -2.9375,-0.79687 -1,-0.79688 -1.28125,-2.35938 z m 23.49579,1.32813 0,1.60937 -8.98438,0 q -0.0156,-0.60937 0.1875,-1.15625 0.34375,-0.92187 1.09375,-1.8125 0.76563,-0.89062 2.1875,-2.0625 2.21875,-1.8125 3,-2.875 0.78125,-1.0625 0.78125,-2.01562 0,-0.98438 -0.71875,-1.67188 -0.70312,-0.6875 -1.84375,-0.6875 -1.20312,0 -1.9375,0.73438 -0.71875,0.71875 -0.71875,2 l -1.71875,-0.17188 q 0.17188,-1.92187 1.32813,-2.92187 1.15625,-1.01563 3.09375,-1.01563 1.95312,0 3.09375,1.09375 1.14062,1.07813 1.14062,2.6875 0,0.8125 -0.34375,1.60938 -0.32812,0.78125 -1.10937,1.65625 -0.76563,0.85937 -2.5625,2.39062 -1.5,1.26563 -1.9375,1.71875 -0.42188,0.4375 -0.70313,0.89063 l 6.67188,0 z" />
  <path
     style="fill:#000000;fill-opacity:0;fill-rule:nonzero"
     inkscape:connector-curvature="0"
     id="path69"
     d="m 137.90027,189.50787 0,-109.00787" />
  <path
     style="fill-rule:evenodd;stroke:#3a4055;stroke-width:1;stroke-linecap:butt;stroke-linejoin:round"
     inkscape:connector-curvature="0"
     id="path71"
     d="m 137.90027,189.50787 0,-103.00787" />
  <path
     style="fill:#3a4055;fill-rule:evenodd;stroke:#3a4055;stroke-width:1;stroke-linecap:butt"
     inkscape:connector-curvature="0"
     id="path73"
     d="M 139.552,86.5 137.90027,81.9619 136.24853,86.5 Z" />
  <path
     style="fill:#000000;fill-opacity:0;fill-rule:nonzero"
     inkscape:connector-curvature="0"
     id="path75"
     d="m 137.90027,374.39502 0,-104.8819" />
  <path
     style="fill-rule:evenodd;stroke:#3a4055;stroke-width:1;stroke-linecap:butt;stroke-linejoin:round"
     inkscape:connector-curvature="0"
     id="path77"
     d="m 137.90027,374.39502 0,-98.8819" />
  <path
     style="fill:#3a4055;fill-rule:evenodd;stroke:#3a4055;stroke-width:1;stroke-linecap:butt"
     inkscape:connector-curvature="0"
     id="path79"
     d="m 139.552,275.51312 -1.65173,-4.53809 -1.65174,4.53809 z" />
  <path
     style="fill:#000000;fill-opacity:0;fill-rule:nonzero"
     inkscape:connector-curvature="0"
     id="path81"
     d="m 279.1572,13.14568 200,0 0,54.70865 -200,0 z" />
  <path
     style="fill:#000000;fill-rule:nonzero"
     inkscape:connector-curvature="0"
     id="path83"
     d="m 299.92285,38.61255 q 1.26563,0.85937 2.3125,1.26562 l -0.53125,1.25 q -1.45312,-0.53125 -2.92187,-1.67187 -1.5,0.84375 -3.32813,0.84375 -1.84375,0 -3.35937,-0.89063 -1.5,-0.89062 -2.3125,-2.5 -0.8125,-1.625 -0.8125,-3.64062 0,-2.01563 0.8125,-3.65625 0.82812,-1.65625 2.32812,-2.51563 1.51563,-0.875 3.375,-0.875 1.89063,0 3.39063,0.90625 1.51562,0.89063 2.3125,2.5 0.79687,1.60938 0.79687,3.625 0,1.6875 -0.51562,3.03125 -0.51563,1.32813 -1.54688,2.32813 z m -3.95312,-2.29688 q 1.5625,0.42188 2.5625,1.29688 1.59375,-1.45313 1.59375,-4.35938 0,-1.65625 -0.5625,-2.875 -0.5625,-1.23437 -1.64063,-1.92187 -1.07812,-0.6875 -2.42187,-0.6875 -2.01563,0 -3.34375,1.39062 -1.32813,1.375 -1.32813,4.10938 0,2.65625 1.3125,4.07812 1.3125,1.40625 3.35938,1.40625 0.95312,0 1.8125,-0.35937 -0.84375,-0.54688 -1.78125,-0.78125 l 0.4375,-1.29688 z m 11.60516,2.25 0.23437,1.48438 q -0.70312,0.14062 -1.26562,0.14062 -0.90625,0 -1.40625,-0.28125 -0.5,-0.29687 -0.70313,-0.75 -0.20312,-0.46875 -0.20312,-1.98437 l 0,-5.65625 -1.23438,0 0,-1.3125 1.23438,0 0,-2.4375 1.65625,-1 0,3.4375 1.6875,0 0,1.3125 -1.6875,0 0,5.75 q 0,0.71875 0.0781,0.92187 0.0937,0.20313 0.29688,0.32813 0.20312,0.125 0.57812,0.125 0.26563,0 0.73438,-0.0781 z m 1.19897,-5.125 q 0,-3.39062 1.8125,-5.29687 1.82813,-1.92188 4.70313,-1.92188 1.875,0 3.39062,0.90625 1.51563,0.89063 2.29688,2.5 0.79687,1.60938 0.79687,3.65625 0,2.0625 -0.84375,3.70313 -0.82812,1.625 -2.35937,2.46875 -1.53125,0.84375 -3.29688,0.84375 -1.92187,0 -3.4375,-0.92188 -1.5,-0.9375 -2.28125,-2.53125 -0.78125,-1.60937 -0.78125,-3.40625 z m 1.85938,0.0312 q 0,2.45313 1.3125,3.875 1.32812,1.40625 3.3125,1.40625 2.03125,0 3.34375,-1.42187 1.3125,-1.4375 1.3125,-4.0625 0,-1.65625 -0.5625,-2.89063 -0.54688,-1.23437 -1.64063,-1.92187 -1.07812,-0.6875 -2.42187,-0.6875 -1.90625,0 -3.28125,1.3125 -1.375,1.3125 -1.375,4.39062 z m 14.52704,6.59375 -1.54688,0 0,-13.59375 1.65625,0 0,4.84375 q 1.0625,-1.32812 2.70313,-1.32812 0.90625,0 1.71875,0.375 0.8125,0.35937 1.32812,1.03125 0.53125,0.65625 0.82813,1.59375 0.29687,0.9375 0.29687,2 0,2.53125 -1.25,3.92187 -1.25,1.375 -3,1.375 -1.75,0 -2.73437,-1.45312 l 0,1.23437 z m -0.0156,-5 q 0,1.76563 0.46875,2.5625 0.79688,1.28125 2.14063,1.28125 1.09375,0 1.89062,-0.9375 0.79688,-0.95312 0.79688,-2.84375 0,-1.92187 -0.76563,-2.84375 -0.76562,-0.92187 -1.84375,-0.92187 -1.09375,0 -1.89062,0.95312 -0.79688,0.95313 -0.79688,2.75 z m 8.84448,-6.65625 0,-1.9375 1.65625,0 0,1.9375 -1.65625,0 z m -2.125,15.48438 0.3125,-1.42188 q 0.5,0.125 0.79688,0.125 0.51562,0 0.76562,-0.34375 0.25,-0.32812 0.25,-1.6875 l 0,-10.35937 1.65625,0 0,10.39062 q 0,1.82813 -0.46875,2.54688 -0.59375,0.92187 -2,0.92187 -0.67187,0 -1.3125,-0.17187 z m 13.01978,-7 1.71875,0.21875 q -0.40625,1.5 -1.51563,2.34375 -1.09375,0.82812 -2.8125,0.82812 -2.15625,0 -3.42187,-1.32812 -1.26563,-1.32813 -1.26563,-3.73438 0,-2.48437 1.26563,-3.85937 1.28125,-1.375 3.32812,-1.375 1.98438,0 3.23438,1.34375 1.25,1.34375 1.25,3.79687 0,0.14063 -0.0156,0.4375 l -7.34375,0 q 0.0937,1.625 0.92188,2.48438 0.82812,0.85937 2.0625,0.85937 0.90625,0 1.54687,-0.46875 0.65625,-0.48437 1.04688,-1.54687 z m -5.48438,-2.70313 5.5,0 q -0.10937,-1.23437 -0.625,-1.85937 -0.79687,-0.96875 -2.07812,-0.96875 -1.14063,0 -1.9375,0.78125 -0.78125,0.76562 -0.85938,2.04687 z m 15.54761,2.26563 1.64063,0.21875 q -0.26563,1.6875 -1.375,2.65625 -1.10938,0.95312 -2.73438,0.95312 -2.01562,0 -3.25,-1.3125 -1.21875,-1.32812 -1.21875,-3.79687 0,-1.59375 0.51563,-2.78125 0.53125,-1.20313 1.60937,-1.79688 1.09375,-0.60937 2.35938,-0.60937 1.60937,0 2.625,0.8125 1.01562,0.8125 1.3125,2.3125 l -1.625,0.25 q -0.23438,-1 -0.82813,-1.5 -0.59375,-0.5 -1.42187,-0.5 -1.26563,0 -2.0625,0.90625 -0.78125,0.90625 -0.78125,2.85937 0,1.98438 0.76562,2.89063 0.76563,0.89062 1.98438,0.89062 0.98437,0 1.64062,-0.59375 0.65625,-0.60937 0.84375,-1.85937 z m 6.54688,2.10937 0.23437,1.48438 q -0.70312,0.14062 -1.26562,0.14062 -0.90625,0 -1.40625,-0.28125 -0.5,-0.29687 -0.70313,-0.75 -0.20312,-0.46875 -0.20312,-1.98437 l 0,-5.65625 -1.23438,0 0,-1.3125 1.23438,0 0,-2.4375 1.65625,-1 0,3.4375 1.6875,0 0,1.3125 -1.6875,0 0,5.75 q 0,0.71875 0.0781,0.92187 0.0937,0.20313 0.29688,0.32813 0.20312,0.125 0.57812,0.125 0.26563,0 0.73438,-0.0781 z m 1.96454,1.5 0,-1.90625 1.90625,0 0,1.90625 q 0,1.04688 -0.375,1.6875 -0.375,0.65625 -1.17188,1 l -0.46875,-0.71875 q 0.53125,-0.21875 0.78125,-0.67187 0.25,-0.45313 0.28125,-1.29688 l -0.95312,0 z m 10.06976,0 0,-13.59375 5.10935,0 q 1.5469,0 2.4844,0.40625 0.9531,0.40625 1.4843,1.26563 0.5313,0.85937 0.5313,1.79687 0,0.875 -0.4688,1.65625 -0.4687,0.76563 -1.4375,1.23438 1.2344,0.35937 1.8907,1.23437 0.6718,0.875 0.6718,2.0625 0,0.95313 -0.4062,1.78125 -0.3906,0.8125 -0.9844,1.26563 -0.5937,0.4375 -1.5,0.67187 -0.8906,0.21875 -2.1875,0.21875 l -5.18745,0 z m 1.79687,-7.89062 2.93748,0 q 1.2031,0 1.7187,-0.15625 0.6875,-0.20313 1.0313,-0.67188 0.3594,-0.46875 0.3594,-1.1875 0,-0.67187 -0.3282,-1.1875 -0.3281,-0.51562 -0.9375,-0.70312 -0.5937,-0.20313 -2.0625,-0.20313 l -2.71868,0 0,4.10938 z m 0,6.28125 3.39058,0 q 0.875,0 1.2188,-0.0625 0.625,-0.10938 1.0468,-0.35938 0.4219,-0.26562 0.6875,-0.76562 0.2657,-0.5 0.2657,-1.14063 0,-0.76562 -0.3907,-1.32812 -0.3906,-0.5625 -1.0781,-0.78125 -0.6875,-0.23438 -1.9844,-0.23438 l -3.15618,0 0,4.67188 z m 10.52168,-10.07813 0,-1.90625 1.6718,0 0,1.90625 -1.6718,0 z m 0,11.6875 0,-9.85937 1.6718,0 0,9.85937 -1.6718,0 z m 4.1292,0 0,-9.85937 1.5,0 0,1.40625 q 1.0937,-1.625 3.1406,-1.625 0.8906,0 1.6406,0.32812 0.75,0.3125 1.1094,0.84375 0.375,0.51563 0.5312,1.21875 0.094,0.46875 0.094,1.625 l 0,6.0625 -1.6719,0 0,-6 q 0,-1.01562 -0.2031,-1.51562 -0.1875,-0.51563 -0.6875,-0.8125 -0.5,-0.29688 -1.1719,-0.29688 -1.0625,0 -1.8437,0.67188 -0.7657,0.67187 -0.7657,2.57812 l 0,5.375 -1.6718,0 z m 16.7663,0 0,-1.25 q -0.9375,1.46875 -2.75,1.46875 -1.1718,0 -2.1718,-0.64062 -0.9844,-0.65625 -1.5313,-1.8125 -0.5312,-1.17188 -0.5312,-2.6875 0,-1.46875 0.4843,-2.67188 0.5,-1.20312 1.4688,-1.84375 0.9844,-0.64062 2.2031,-0.64062 0.8906,0 1.5781,0.375 0.7032,0.375 1.1407,0.98437 l 0,-4.875 1.6562,0 0,13.59375 -1.5469,0 z m -5.2812,-4.92187 q 0,1.89062 0.7969,2.82812 0.8125,0.9375 1.8906,0.9375 1.0937,0 1.8594,-0.89062 0.7656,-0.89063 0.7656,-2.73438 0,-2.01562 -0.7813,-2.95312 -0.7812,-0.95313 -1.9218,-0.95313 -1.1094,0 -1.8594,0.90625 -0.75,0.90625 -0.75,2.85938 z m 9.282,-6.76563 0,-1.90625 1.6718,0 0,1.90625 -1.6718,0 z m 0,11.6875 0,-9.85937 1.6718,0 0,9.85937 -1.6718,0 z m 4.1291,0 0,-9.85937 1.5,0 0,1.40625 q 1.0938,-1.625 3.1406,-1.625 0.8907,0 1.6407,0.32812 0.75,0.3125 1.1093,0.84375 0.375,0.51563 0.5313,1.21875 0.094,0.46875 0.094,1.625 l 0,6.0625 -1.6718,0 0,-6 q 0,-1.01562 -0.2032,-1.51562 -0.1875,-0.51563 -0.6875,-0.8125 -0.5,-0.29688 -1.1718,-0.29688 -1.0625,0 -1.8438,0.67188 -0.7656,0.67187 -0.7656,2.57812 l 0,5.375 -1.6719,0 z m 10.0789,0.8125 1.6093,0.25 q 0.1094,0.75 0.5782,1.09375 0.6093,0.45313 1.6875,0.45313 1.1718,0 1.7968,-0.46875 0.625,-0.45313 0.8594,-1.28125 0.125,-0.51563 0.1094,-2.15625 -1.0938,1.29687 -2.7188,1.29687 -2.0312,0 -3.1562,-1.46875 -1.1094,-1.46875 -1.1094,-3.51562 0,-1.40625 0.5156,-2.59375 0.5157,-1.20313 1.4844,-1.84375 0.9688,-0.65625 2.2656,-0.65625 1.75,0 2.875,1.40625 l 0,-1.1875 1.5469,0 0,8.51562 q 0,2.3125 -0.4687,3.26563 -0.4688,0.96875 -1.4844,1.51562 -1.0156,0.5625 -2.5,0.5625 -1.7656,0 -2.8594,-0.79687 -1.0781,-0.79688 -1.0312,-2.39063 z m 1.375,-5.92187 q 0,1.95312 0.7656,2.84375 0.7812,0.89062 1.9375,0.89062 1.1406,0 1.9219,-0.89062 0.7812,-0.89063 0.7812,-2.78125 0,-1.8125 -0.8125,-2.71875 -0.7969,-0.92188 -1.9219,-0.92188 -1.1093,0 -1.8906,0.90625 -0.7812,0.89063 -0.7812,2.67188 z m 9.7351,5.10937 0,-1.90625 1.9062,0 0,1.90625 q 0,1.04688 -0.375,1.6875 -0.375,0.65625 -1.1718,1 l -0.4688,-0.71875 q 0.5313,-0.21875 0.7813,-0.67187 0.25,-0.45313 0.2812,-1.29688 l -0.9531,0 z" />
  <path
     style="fill:#000000;fill-rule:nonzero"
     inkscape:connector-curvature="0"
     id="path85"
     d="m 293.0791,62.06567 0,-12 -4.46875,0 0,-1.59375 10.76563,0 0,1.59375 -4.5,0 0,12 -1.79688,0 z m 7.73975,-11.6875 0,-1.90625 1.67187,0 0,1.90625 -1.67187,0 z m 0,11.6875 0,-9.85938 1.67187,0 0,9.85938 -1.67187,0 z m 4.12921,0 0,-9.85938 1.5,0 0,1.39063 q 0.45312,-0.71875 1.21875,-1.15625 0.78125,-0.45313 1.76562,-0.45313 1.09375,0 1.79688,0.45313 0.70312,0.45312 0.98437,1.28125 1.17188,-1.73438 3.04688,-1.73438 1.46875,0 2.25,0.8125 0.79687,0.8125 0.79687,2.5 l 0,6.76563 -1.67187,0 0,-6.20313 q 0,-1 -0.15625,-1.4375 -0.15625,-0.45312 -0.59375,-0.71875 -0.42188,-0.26562 -1,-0.26562 -1.03125,0 -1.71875,0.6875 -0.6875,0.6875 -0.6875,2.21875 l 0,5.71875 -1.67188,0 0,-6.40625 q 0,-1.10938 -0.40625,-1.65625 -0.40625,-0.5625 -1.34375,-0.5625 -0.70312,0 -1.3125,0.375 -0.59375,0.35937 -0.85937,1.07812 -0.26563,0.71875 -0.26563,2.0625 l 0,5.10938 -1.67187,0 z m 22.29077,-3.17188 1.71875,0.21875 q -0.40625,1.5 -1.51563,2.34375 -1.09375,0.82813 -2.8125,0.82813 -2.15625,0 -3.42187,-1.32813 -1.26563,-1.32812 -1.26563,-3.73437 0,-2.48438 1.26563,-3.85938 1.28125,-1.375 3.32812,-1.375 1.98438,0 3.23438,1.34375 1.25,1.34375 1.25,3.79688 0,0.14062 -0.0156,0.4375 l -7.34375,0 q 0.0937,1.625 0.92188,2.48437 0.82812,0.85938 2.0625,0.85938 0.90625,0 1.54687,-0.46875 0.65625,-0.48438 1.04688,-1.54688 z m -5.48438,-2.70312 5.5,0 q -0.10937,-1.23438 -0.625,-1.85938 -0.79687,-0.96875 -2.07812,-0.96875 -1.14063,0 -1.9375,0.78125 -0.78125,0.76563 -0.85938,2.04688 z m 9.09449,5.875 0,-9.85938 1.5,0 0,1.5 q 0.57812,-1.04687 1.0625,-1.375 0.48437,-0.34375 1.07812,-0.34375 0.84375,0 1.71875,0.54688 l -0.57812,1.54687 q -0.60938,-0.35937 -1.23438,-0.35937 -0.54687,0 -0.98437,0.32812 -0.42188,0.32813 -0.60938,0.90625 -0.28125,0.89063 -0.28125,1.95313 l 0,5.15625 -1.67187,0 z m 6.66577,0 0,-1.90625 1.90625,0 0,1.90625 q 0,1.04687 -0.375,1.6875 -0.375,0.65625 -1.17188,1 l -0.46875,-0.71875 q 0.53125,-0.21875 0.78125,-0.67188 0.25,-0.45312 0.28125,-1.29687 l -0.95312,0 z m 16.67913,-3.17188 1.71875,0.21875 q -0.40625,1.5 -1.51562,2.34375 -1.09375,0.82813 -2.8125,0.82813 -2.15625,0 -3.42188,-1.32813 -1.26562,-1.32812 -1.26562,-3.73437 0,-2.48438 1.26562,-3.85938 1.28125,-1.375 3.32813,-1.375 1.98437,0 3.23437,1.34375 1.25,1.34375 1.25,3.79688 0,0.14062 -0.0156,0.4375 l -7.34375,0 q 0.0937,1.625 0.92187,2.48437 0.82813,0.85938 2.0625,0.85938 0.90625,0 1.54688,-0.46875 0.65625,-0.48438 1.04687,-1.54688 z m -5.48437,-2.70312 5.5,0 q -0.10938,-1.23438 -0.625,-1.85938 -0.79688,-0.96875 -2.07813,-0.96875 -1.14062,0 -1.9375,0.78125 -0.78125,0.76563 -0.85937,2.04688 z m 12.76636,4.375 0.23437,1.48437 q -0.70312,0.14063 -1.26562,0.14063 -0.90625,0 -1.40625,-0.28125 -0.5,-0.29688 -0.70313,-0.75 -0.20312,-0.46875 -0.20312,-1.98438 l 0,-5.65625 -1.23438,0 0,-1.3125 1.23438,0 0,-2.4375 1.65625,-1 0,3.4375 1.6875,0 0,1.3125 -1.6875,0 0,5.75 q 0,0.71875 0.0781,0.92188 0.0937,0.20312 0.29688,0.32812 0.20312,0.125 0.57812,0.125 0.26563,0 0.73438,-0.0781 z m 7.96454,-2.10938 1.64062,0.21875 q -0.26562,1.6875 -1.375,2.65625 -1.10937,0.95313 -2.73437,0.95313 -2.01563,0 -3.25,-1.3125 -1.21875,-1.32813 -1.21875,-3.79688 0,-1.59375 0.51562,-2.78125 0.53125,-1.20312 1.60938,-1.79687 1.09375,-0.60938 2.35937,-0.60938 1.60938,0 2.625,0.8125 1.01563,0.8125 1.3125,2.3125 l -1.625,0.25 q -0.23437,-1 -0.82812,-1.5 -0.59375,-0.5 -1.42188,-0.5 -1.26562,0 -2.0625,0.90625 -0.78125,0.90625 -0.78125,2.85938 0,1.98437 0.76563,2.89062 0.76562,0.89063 1.98437,0.89063 0.98438,0 1.64063,-0.59375 0.65625,-0.60938 0.84375,-1.85938 z m 3.35937,3.60938 0,-1.90625 1.90625,0 0,1.90625 -1.90625,0 z" />
  <path
     style="fill:#000000;fill-opacity:0;fill-rule:nonzero"
     inkscape:connector-curvature="0"
     id="path87"
     d="m 279.1572,202.14566 200,0 0,54.70868 -200,0 z" />
  <path
     style="fill:#000000;fill-rule:nonzero"
     inkscape:connector-curvature="0"
     id="path89"
     d="m 289.92285,229.06567 0,-13.59375 1.8125,0 0,13.59375 -1.8125,0 z m 8.32391,-1.5 0.23438,1.48437 q -0.70313,0.14063 -1.26563,0.14063 -0.90625,0 -1.40625,-0.28125 -0.5,-0.29688 -0.70312,-0.75 -0.20313,-0.46875 -0.20313,-1.98438 l 0,-5.65625 -1.23437,0 0,-1.3125 1.23437,0 0,-2.4375 1.65625,-1 0,3.4375 1.6875,0 0,1.3125 -1.6875,0 0,5.75 q 0,0.71875 0.0781,0.92188 0.0937,0.20312 0.29687,0.32812 0.20313,0.125 0.57813,0.125 0.26562,0 0.73437,-0.0781 z m 8.2771,-1.67188 1.71875,0.21875 q -0.40625,1.5 -1.51562,2.34375 -1.09375,0.82813 -2.8125,0.82813 -2.15625,0 -3.42188,-1.32813 -1.26562,-1.32812 -1.26562,-3.73437 0,-2.48438 1.26562,-3.85938 1.28125,-1.375 3.32813,-1.375 1.98437,0 3.23437,1.34375 1.25,1.34375 1.25,3.79688 0,0.14062 -0.0156,0.4375 l -7.34375,0 q 0.0937,1.625 0.92187,2.48437 0.82813,0.85938 2.0625,0.85938 0.90625,0 1.54688,-0.46875 0.65625,-0.48438 1.04687,-1.54688 z m -5.48437,-2.70312 5.5,0 q -0.10938,-1.23438 -0.625,-1.85938 -0.79688,-0.96875 -2.07813,-0.96875 -1.14062,0 -1.9375,0.78125 -0.78125,0.76563 -0.85937,2.04688 z m 9.11005,5.875 0,-9.85938 1.5,0 0,1.39063 q 0.45312,-0.71875 1.21875,-1.15625 0.78125,-0.45313 1.76562,-0.45313 1.09375,0 1.79688,0.45313 0.70312,0.45312 0.98437,1.28125 1.17188,-1.73438 3.04688,-1.73438 1.46875,0 2.25,0.8125 0.79687,0.8125 0.79687,2.5 l 0,6.76563 -1.67187,0 0,-6.20313 q 0,-1 -0.15625,-1.4375 -0.15625,-0.45312 -0.59375,-0.71875 -0.42188,-0.26562 -1,-0.26562 -1.03125,0 -1.71875,0.6875 -0.6875,0.6875 -0.6875,2.21875 l 0,5.71875 -1.67188,0 0,-6.40625 q 0,-1.10938 -0.40625,-1.65625 -0.40625,-0.5625 -1.34375,-0.5625 -0.70312,0 -1.3125,0.375 -0.59375,0.35937 -0.85937,1.07812 -0.26563,0.71875 -0.26563,2.0625 l 0,5.10938 -1.67187,0 z m 15.97833,0 0,-1.90625 1.90625,0 0,1.90625 q 0,1.04687 -0.375,1.6875 -0.375,0.65625 -1.17188,1 l -0.46875,-0.71875 q 0.53125,-0.21875 0.78125,-0.67188 0.25,-0.45312 0.28125,-1.29687 l -0.95312,0 z m 10.17907,0 0,-13.59375 6.03125,0 q 1.8125,0 2.75,0.35937 0.95313,0.35938 1.51563,1.29688 0.5625,0.92187 0.5625,2.04687 0,1.45313 -0.9375,2.45313 -0.92188,0.98437 -2.89063,1.25 0.71875,0.34375 1.09375,0.67187 0.78125,0.73438 1.48438,1.8125 l 2.375,3.70313 -2.26563,0 -1.79687,-2.82813 q -0.79688,-1.21875 -1.3125,-1.875 -0.5,-0.65625 -0.90625,-0.90625 -0.40625,-0.26562 -0.8125,-0.35937 -0.3125,-0.0781 -1.01563,-0.0781 l -2.07812,0 0,6.04688 -1.79688,0 z m 1.79688,-7.59375 3.85937,0 q 1.23438,0 1.92188,-0.25 0.70312,-0.26563 1.0625,-0.82813 0.375,-0.5625 0.375,-1.21875 0,-0.96875 -0.70313,-1.57812 -0.70312,-0.625 -2.21875,-0.625 l -4.29687,0 0,4.5 z m 18.17609,4.42187 1.71875,0.21875 q -0.40625,1.5 -1.51563,2.34375 -1.09375,0.82813 -2.8125,0.82813 -2.15625,0 -3.42187,-1.32813 -1.26563,-1.32812 -1.26563,-3.73437 0,-2.48438 1.26563,-3.85938 1.28125,-1.375 3.32812,-1.375 1.98438,0 3.23438,1.34375 1.25,1.34375 1.25,3.79688 0,0.14062 -0.0156,0.4375 l -7.34375,0 q 0.0937,1.625 0.92188,2.48437 0.82812,0.85938 2.0625,0.85938 0.90625,0 1.54687,-0.46875 0.65625,-0.48438 1.04688,-1.54688 z m -5.48438,-2.70312 5.5,0 q -0.10937,-1.23438 -0.625,-1.85938 -0.79687,-0.96875 -2.07812,-0.96875 -1.14063,0 -1.9375,0.78125 -0.78125,0.76563 -0.85938,2.04688 z m 15.54761,2.26562 1.64062,0.21875 q -0.26562,1.6875 -1.375,2.65625 -1.10937,0.95313 -2.73437,0.95313 -2.01563,0 -3.25,-1.3125 -1.21875,-1.32813 -1.21875,-3.79688 0,-1.59375 0.51562,-2.78125 0.53125,-1.20312 1.60938,-1.79687 1.09375,-0.60938 2.35937,-0.60938 1.60938,0 2.625,0.8125 1.01563,0.8125 1.3125,2.3125 l -1.625,0.25 q -0.23437,-1 -0.82812,-1.5 -0.59375,-0.5 -1.42188,-0.5 -1.26562,0 -2.0625,0.90625 -0.78125,0.90625 -0.78125,2.85938 0,1.98437 0.76563,2.89062 0.76562,0.89063 1.98437,0.89063 0.98438,0 1.64063,-0.59375 0.65625,-0.60938 0.84375,-1.85938 z m 6.54687,2.10938 0.23438,1.48437 q -0.70313,0.14063 -1.26563,0.14063 -0.90625,0 -1.40625,-0.28125 -0.5,-0.29688 -0.70312,-0.75 -0.20313,-0.46875 -0.20313,-1.98438 l 0,-5.65625 -1.23437,0 0,-1.3125 1.23437,0 0,-2.4375 1.65625,-1 0,3.4375 1.6875,0 0,1.3125 -1.6875,0 0,5.75 q 0,0.71875 0.0781,0.92188 0.0937,0.20312 0.29687,0.32812 0.20313,0.125 0.57813,0.125 0.26562,0 0.73437,-0.0781 z m 7.96459,0.28125 q -0.9375,0.79687 -1.7969,1.125 -0.8594,0.3125 -1.8438,0.3125 -1.60935,0 -2.48435,-0.78125 -0.875,-0.79688 -0.875,-2.03125 0,-0.73438 0.32813,-1.32813 0.32812,-0.59375 0.85937,-0.95312 0.53125,-0.35938 1.20315,-0.54688 0.5,-0.14062 1.4844,-0.25 2.0312,-0.25 2.9843,-0.57812 0,-0.34375 0,-0.4375 0,-1.01563 -0.4687,-1.4375 -0.6406,-0.5625 -1.9063,-0.5625 -1.1718,0 -1.7343,0.40625 -0.5625,0.40625 -0.82817,1.46875 l -1.64063,-0.23438 q 0.23438,-1.04687 0.73438,-1.6875 0.51562,-0.64062 1.46872,-0.98437 0.9688,-0.35938 2.25,-0.35938 1.2657,0 2.0469,0.29688 0.7813,0.29687 1.1563,0.75 0.375,0.45312 0.5156,1.14062 0.094,0.42188 0.094,1.53125 l 0,2.23438 q 0,2.32812 0.094,2.95312 0.1094,0.60938 0.4375,1.17188 l -1.75,0 q -0.2656,-0.51563 -0.3281,-1.21875 z m -0.1407,-3.71875 q -0.9062,0.35937 -2.7343,0.625 -1.0313,0.14062 -1.4532,0.32812 -0.4218,0.1875 -0.65622,0.54688 -0.23438,0.35937 -0.23438,0.79687 0,0.67188 0.5,1.125 0.5156,0.4375 1.4844,0.4375 0.9687,0 1.7187,-0.42187 0.75,-0.4375 1.1094,-1.15625 0.2656,-0.57813 0.2656,-1.67188 l 0,-0.60937 z m 4.0789,4.9375 0,-9.85938 1.5,0 0,1.40625 q 1.0937,-1.625 3.1406,-1.625 0.8906,0 1.6406,0.32813 0.75,0.3125 1.1094,0.84375 0.375,0.51562 0.5313,1.21875 0.094,0.46875 0.094,1.625 l 0,6.0625 -1.6719,0 0,-6 q 0,-1.01563 -0.2031,-1.51563 -0.1875,-0.51562 -0.6875,-0.8125 -0.5,-0.29687 -1.1719,-0.29687 -1.0625,0 -1.8437,0.67187 -0.7656,0.67188 -0.7656,2.57813 l 0,5.375 -1.6719,0 z m 10.0788,0.8125 1.6094,0.25 q 0.1094,0.75 0.5781,1.09375 0.6094,0.45312 1.6875,0.45312 1.1719,0 1.7969,-0.46875 0.625,-0.45312 0.8593,-1.28125 0.125,-0.51562 0.1094,-2.15625 -1.0937,1.29688 -2.7187,1.29688 -2.0312,0 -3.1562,-1.46875 -1.1094,-1.46875 -1.1094,-3.51563 0,-1.40625 0.5156,-2.59375 0.5156,-1.20312 1.4844,-1.84375 0.9687,-0.65625 2.2656,-0.65625 1.75,0 2.875,1.40625 l 0,-1.1875 1.5468,0 0,8.51563 q 0,2.3125 -0.4687,3.26562 -0.4688,0.96875 -1.4844,1.51563 -1.0156,0.5625 -2.4999,0.5625 -1.7657,0 -2.8594,-0.79688 -1.0781,-0.79687 -1.0313,-2.39062 z m 1.375,-5.92188 q 0,1.95313 0.7657,2.84375 0.7812,0.89063 1.9375,0.89063 1.1405,0 1.9218,-0.89063 0.7812,-0.89062 0.7812,-2.78125 0,-1.8125 -0.8125,-2.71875 -0.7968,-0.92187 -1.9218,-0.92187 -1.1094,0 -1.8906,0.90625 -0.7813,0.89062 -0.7813,2.67187 z m 9.2663,5.10938 0,-13.59375 1.6719,0 0,13.59375 -1.6719,0 z m 10.9262,-3.17188 1.7187,0.21875 q -0.4062,1.5 -1.5156,2.34375 -1.0937,0.82813 -2.8125,0.82813 -2.1562,0 -3.4219,-1.32813 -1.2656,-1.32812 -1.2656,-3.73437 0,-2.48438 1.2656,-3.85938 1.2813,-1.375 3.3282,-1.375 1.9843,0 3.2343,1.34375 1.25,1.34375 1.25,3.79688 0,0.14062 -0.016,0.4375 l -7.3437,0 q 0.094,1.625 0.9218,2.48437 0.8282,0.85938 2.0625,0.85938 0.9063,0 1.5469,-0.46875 0.6563,-0.48438 1.0469,-1.54688 z m -5.4844,-2.70312 5.5,0 q -0.1094,-1.23438 -0.625,-1.85938 -0.7969,-0.96875 -2.0781,-0.96875 -1.1406,0 -1.9375,0.78125 -0.7813,0.76563 -0.8594,2.04688 z m 9.5475,5.875 0,-1.90625 1.9062,0 0,1.90625 q 0,1.04687 -0.375,1.6875 -0.375,0.65625 -1.1718,1 l -0.4688,-0.71875 q 0.5313,-0.21875 0.7813,-0.67188 0.25,-0.45312 0.2812,-1.29687 l -0.9531,0 z" />
  <path
     style="fill:#000000;fill-rule:nonzero"
     inkscape:connector-curvature="0"
     id="path91"
     d="m 293.0791,251.06567 0,-12 -4.46875,0 0,-1.59375 10.76563,0 0,1.59375 -4.5,0 0,12 -1.79688,0 z m 14.47412,-3.17188 1.71875,0.21875 q -0.40625,1.5 -1.51562,2.34375 -1.09375,0.82813 -2.8125,0.82813 -2.15625,0 -3.42188,-1.32813 -1.26562,-1.32812 -1.26562,-3.73437 0,-2.48438 1.26562,-3.85938 1.28125,-1.375 3.32813,-1.375 1.98437,0 3.23437,1.34375 1.25,1.34375 1.25,3.79688 0,0.14062 -0.0156,0.4375 l -7.34375,0 q 0.0937,1.625 0.92187,2.48437 0.82813,0.85938 2.0625,0.85938 0.90625,0 1.54688,-0.46875 0.65625,-0.48438 1.04687,-1.54688 z m -5.48437,-2.70312 5.5,0 q -0.10938,-1.23438 -0.625,-1.85938 -0.79688,-0.96875 -2.07813,-0.96875 -1.14062,0 -1.9375,0.78125 -0.78125,0.76563 -0.85937,2.04688 z m 8.00073,5.875 3.59375,-5.125 -3.32813,-4.73438 2.09375,0 1.51563,2.3125 q 0.42187,0.65625 0.67187,1.10938 0.42188,-0.60938 0.76563,-1.09375 l 1.65625,-2.32813 1.98437,0 -3.39062,4.64063 3.65625,5.21875 -2.04688,0 -2.03125,-3.0625 -0.53125,-0.82813 -2.59375,3.89063 -2.01562,0 z m 14.09375,-1.5 0.23437,1.48437 q -0.70312,0.14063 -1.26562,0.14063 -0.90625,0 -1.40625,-0.28125 -0.5,-0.29688 -0.70313,-0.75 -0.20312,-0.46875 -0.20312,-1.98438 l 0,-5.65625 -1.23438,0 0,-1.3125 1.23438,0 0,-2.4375 1.65625,-1 0,3.4375 1.6875,0 0,1.3125 -1.6875,0 0,5.75 q 0,0.71875 0.0781,0.92188 0.0937,0.20312 0.29688,0.32812 0.20312,0.125 0.57812,0.125 0.26563,0 0.73438,-0.0781 z m 1.96454,1.5 0,-1.90625 1.90625,0 0,1.90625 q 0,1.04687 -0.375,1.6875 -0.375,0.65625 -1.17188,1 l -0.46875,-0.71875 q 0.53125,-0.21875 0.78125,-0.67188 0.25,-0.45312 0.28125,-1.29687 l -0.95312,0 z m 10.0697,0 0,-13.59375 1.79687,0 0,11.98437 6.70313,0 0,1.60938 -8.5,0 z m 10.25073,-11.6875 0,-1.90625 1.67188,0 0,1.90625 -1.67188,0 z m 0,11.6875 0,-9.85938 1.67188,0 0,9.85938 -1.67188,0 z m 3.45734,-2.9375 1.65625,-0.26563 q 0.14062,1 0.76562,1.53125 0.64063,0.51563 1.78125,0.51563 1.15625,0 1.70313,-0.46875 0.5625,-0.46875 0.5625,-1.09375 0,-0.5625 -0.48438,-0.89063 -0.34375,-0.21875 -1.70312,-0.5625 -1.84375,-0.46875 -2.5625,-0.79687 -0.70313,-0.34375 -1.07813,-0.9375 -0.35937,-0.60938 -0.35937,-1.32813 0,-0.65625 0.29687,-1.21875 0.3125,-0.5625 0.82813,-0.9375 0.39062,-0.28125 1.0625,-0.48437 0.67187,-0.20313 1.4375,-0.20313 1.17187,0 2.04687,0.34375 0.875,0.32813 1.28125,0.90625 0.42188,0.5625 0.57813,1.51563 l -1.625,0.21875 q -0.10938,-0.75 -0.65625,-1.17188 -0.53125,-0.4375 -1.5,-0.4375 -1.15625,0 -1.64063,0.39063 -0.48437,0.375 -0.48437,0.875 0,0.32812 0.20312,0.59375 0.20313,0.26562 0.64063,0.4375 0.25,0.0937 1.46875,0.4375 1.76562,0.46875 2.46875,0.76562 0.70312,0.29688 1.09375,0.875 0.40625,0.57813 0.40625,1.4375 0,0.82813 -0.48438,1.57813 -0.48437,0.73437 -1.40625,1.14062 -0.92187,0.39063 -2.07812,0.39063 -1.92188,0 -2.9375,-0.79688 -1,-0.79687 -1.28125,-2.35937 z m 13.65625,1.4375 0.23437,1.48437 q -0.70312,0.14063 -1.26562,0.14063 -0.90625,0 -1.40625,-0.28125 -0.5,-0.29688 -0.70313,-0.75 -0.20312,-0.46875 -0.20312,-1.98438 l 0,-5.65625 -1.23438,0 0,-1.3125 1.23438,0 0,-2.4375 1.65625,-1 0,3.4375 1.6875,0 0,1.3125 -1.6875,0 0,5.75 q 0,0.71875 0.0781,0.92188 0.0937,0.20312 0.29688,0.32812 0.20312,0.125 0.57812,0.125 0.26563,0 0.73438,-0.0781 z m 5.63641,1.5 -5.28125,-13.59375 1.95313,0 3.53125,9.875 q 0.4375,1.1875 0.71875,2.21875 0.3125,-1.10938 0.73437,-2.21875 l 3.67188,-9.875 1.84377,0 -5.32815,13.59375 -1.84375,0 z m 8.3499,-11.6875 0,-1.90625 1.6718,0 0,1.90625 -1.6718,0 z m 0,11.6875 0,-9.85938 1.6718,0 0,9.85938 -1.6718,0 z m 10.8791,-3.17188 1.7188,0.21875 q -0.4063,1.5 -1.5157,2.34375 -1.0937,0.82813 -2.8125,0.82813 -2.1562,0 -3.4218,-1.32813 -1.2657,-1.32812 -1.2657,-3.73437 0,-2.48438 1.2657,-3.85938 1.2812,-1.375 3.3281,-1.375 1.9844,0 3.2344,1.34375 1.25,1.34375 1.25,3.79688 0,0.14062 -0.016,0.4375 l -7.3437,0 q 0.094,1.625 0.9219,2.48437 0.8281,0.85938 2.0625,0.85938 0.9062,0 1.5468,-0.46875 0.6563,-0.48438 1.0469,-1.54688 z m -5.4844,-2.70312 5.5,0 q -0.1093,-1.23438 -0.625,-1.85938 -0.7968,-0.96875 -2.0781,-0.96875 -1.1406,0 -1.9375,0.78125 -0.7812,0.76563 -0.8594,2.04688 z m 10.9383,5.875 -3.0157,-9.85938 1.7188,0 1.5625,5.6875 0.5937,2.125 q 0.031,-0.15625 0.5,-2.03125 l 1.5782,-5.78125 1.7187,0 1.4688,5.71875 0.4844,1.89063 0.5781,-1.90625 1.6875,-5.70313 1.625,0 -3.0781,9.85938 -1.7344,0 -1.5782,-5.90625 -0.375,-1.67188 -2,7.57813 -1.7343,0 z m 12.0823,0 0,-1.90625 1.9062,0 0,1.90625 q 0,1.04687 -0.375,1.6875 -0.375,0.65625 -1.1718,1 l -0.4688,-0.71875 q 0.5313,-0.21875 0.7813,-0.67188 0.25,-0.45312 0.2812,-1.29687 l -0.9531,0 z m 16.6791,-3.17188 1.7187,0.21875 q -0.4062,1.5 -1.5156,2.34375 -1.0938,0.82813 -2.8125,0.82813 -2.1563,0 -3.4219,-1.32813 -1.2656,-1.32812 -1.2656,-3.73437 0,-2.48438 1.2656,-3.85938 1.2813,-1.375 3.3281,-1.375 1.9844,0 3.2344,1.34375 1.25,1.34375 1.25,3.79688 0,0.14062 -0.016,0.4375 l -7.3438,0 q 0.094,1.625 0.9219,2.48437 0.8281,0.85938 2.0625,0.85938 0.9063,0 1.5469,-0.46875 0.6562,-0.48438 1.0469,-1.54688 z m -5.4844,-2.70312 5.5,0 q -0.1094,-1.23438 -0.625,-1.85938 -0.7969,-0.96875 -2.0781,-0.96875 -1.1407,0 -1.9375,0.78125 -0.7813,0.76563 -0.8594,2.04688 z m 12.7664,4.375 0.2343,1.48437 q -0.7031,0.14063 -1.2656,0.14063 -0.9062,0 -1.4062,-0.28125 -0.5,-0.29688 -0.7032,-0.75 -0.2031,-0.46875 -0.2031,-1.98438 l 0,-5.65625 -1.2344,0 0,-1.3125 1.2344,0 0,-2.4375 1.6563,-1 0,3.4375 1.6875,0 0,1.3125 -1.6875,0 0,5.75 q 0,0.71875 0.078,0.92188 0.094,0.20312 0.2969,0.32812 0.2031,0.125 0.5781,0.125 0.2656,0 0.7344,-0.0781 z m 7.9646,-2.10938 1.6406,0.21875 q -0.2656,1.6875 -1.375,2.65625 -1.1094,0.95313 -2.7344,0.95313 -2.0156,0 -3.25,-1.3125 -1.2187,-1.32813 -1.2187,-3.79688 0,-1.59375 0.5156,-2.78125 0.5312,-1.20312 1.6094,-1.79687 1.0937,-0.60938 2.3593,-0.60938 1.6094,0 2.625,0.8125 1.0157,0.8125 1.3125,2.3125 l -1.625,0.25 q -0.2343,-1 -0.8281,-1.5 -0.5937,-0.5 -1.4219,-0.5 -1.2656,0 -2.0625,0.90625 -0.7812,0.90625 -0.7812,2.85938 0,1.98437 0.7656,2.89062 0.7656,0.89063 1.9844,0.89063 0.9844,0 1.6406,-0.59375 0.6563,-0.60938 0.8438,-1.85938 z m 3.3593,3.60938 0,-1.90625 1.9063,0 0,1.90625 -1.9063,0 z" />
  <path
     style="fill:#000000;fill-opacity:0;fill-rule:nonzero"
     inkscape:connector-curvature="0"
     id="path93"
     d="m 279.1572,387.0407 200,0 0,54.70862 -200,0 z" />
  <path
     style="fill:#000000;fill-rule:nonzero"
     inkscape:connector-curvature="0"
     id="path95"
     d="m 289.54785,413.9607 0,-13.59375 5.10938,0 q 1.54687,0 2.48437,0.40625 0.95313,0.40625 1.48438,1.26562 0.53125,0.85938 0.53125,1.79688 0,0.875 -0.46875,1.65625 -0.46875,0.76562 -1.4375,1.23437 1.23437,0.35938 1.89062,1.23438 0.67188,0.875 0.67188,2.0625 0,0.95312 -0.40625,1.78125 -0.39063,0.8125 -0.98438,1.26562 -0.59375,0.4375 -1.5,0.67188 -0.89062,0.21875 -2.1875,0.21875 l -5.1875,0 z m 1.79688,-7.89063 2.9375,0 q 1.20312,0 1.71875,-0.15625 0.6875,-0.20312 1.03125,-0.67187 0.35937,-0.46875 0.35937,-1.1875 0,-0.67188 -0.32812,-1.1875 -0.32813,-0.51563 -0.9375,-0.70313 -0.59375,-0.20312 -2.0625,-0.20312 l -2.71875,0 0,4.10937 z m 0,6.28125 3.39062,0 q 0.875,0 1.21875,-0.0625 0.625,-0.10937 1.04688,-0.35937 0.42187,-0.26563 0.6875,-0.76563 0.26562,-0.5 0.26562,-1.14062 0,-0.76563 -0.39062,-1.32813 -0.39063,-0.5625 -1.07813,-0.78125 -0.6875,-0.23437 -1.98437,-0.23437 l -3.15625,0 0,4.67187 z m 16.95922,1.60938 0,-1.45313 q -1.14062,1.67188 -3.125,1.67188 -0.85937,0 -1.625,-0.32813 -0.75,-0.34375 -1.125,-0.84375 -0.35937,-0.5 -0.51562,-1.23437 -0.0937,-0.5 -0.0937,-1.5625 l 0,-6.10938 1.67187,0 0,5.46875 q 0,1.3125 0.0937,1.76563 0.15625,0.65625 0.67188,1.03125 0.51562,0.375 1.26562,0.375 0.75,0 1.40625,-0.375 0.65625,-0.39063 0.92188,-1.04688 0.28125,-0.67187 0.28125,-1.9375 l 0,-5.28125 1.67187,0 0,9.85938 -1.5,0 z m 7.5788,-1.5 0.23438,1.48437 q -0.70313,0.14063 -1.26563,0.14063 -0.90625,0 -1.40625,-0.28125 -0.5,-0.29688 -0.70312,-0.75 -0.20313,-0.46875 -0.20313,-1.98438 l 0,-5.65625 -1.23437,0 0,-1.3125 1.23437,0 0,-2.4375 1.65625,-1 0,3.4375 1.6875,0 0,1.3125 -1.6875,0 0,5.75 q 0,0.71875 0.0781,0.92188 0.0937,0.20312 0.29687,0.32812 0.20313,0.125 0.57813,0.125 0.26562,0 0.73437,-0.0781 z m 5.18335,0 0.23438,1.48437 q -0.70313,0.14063 -1.26563,0.14063 -0.90625,0 -1.40625,-0.28125 -0.5,-0.29688 -0.70312,-0.75 -0.20313,-0.46875 -0.20313,-1.98438 l 0,-5.65625 -1.23437,0 0,-1.3125 1.23437,0 0,-2.4375 1.65625,-1 0,3.4375 1.6875,0 0,1.3125 -1.6875,0 0,5.75 q 0,0.71875 0.0781,0.92188 0.0937,0.20312 0.29687,0.32812 0.20313,0.125 0.57813,0.125 0.26562,0 0.73437,-0.0781 z m 0.90204,-3.42188 q 0,-2.73437 1.53125,-4.0625 1.26562,-1.09375 3.09375,-1.09375 2.03125,0 3.3125,1.34375 1.29687,1.32813 1.29687,3.67188 0,1.90625 -0.57812,3 -0.5625,1.07812 -1.65625,1.6875 -1.07813,0.59375 -2.375,0.59375 -2.0625,0 -3.34375,-1.32813 -1.28125,-1.32812 -1.28125,-3.8125 z m 1.71875,0 q 0,1.89063 0.82812,2.82813 0.82813,0.9375 2.07813,0.9375 1.25,0 2.0625,-0.9375 0.82812,-0.95313 0.82812,-2.89063 0,-1.82812 -0.82812,-2.76562 -0.82813,-0.9375 -2.0625,-0.9375 -1.25,0 -2.07813,0.9375 -0.82812,0.9375 -0.82812,2.82812 z m 9.28198,4.92188 0,-9.85938 1.5,0 0,1.40625 q 1.09375,-1.625 3.14063,-1.625 0.89062,0 1.64062,0.32813 0.75,0.3125 1.10938,0.84375 0.375,0.51562 0.53125,1.21875 0.0937,0.46875 0.0937,1.625 l 0,6.0625 -1.67188,0 0,-6 q 0,-1.01563 -0.20312,-1.51563 -0.1875,-0.51562 -0.6875,-0.8125 -0.5,-0.29687 -1.17188,-0.29687 -1.0625,0 -1.84375,0.67187 -0.76562,0.67188 -0.76562,2.57813 l 0,5.375 -1.67188,0 z m 10.81317,0 0,-1.90625 1.90625,0 0,1.90625 q 0,1.04687 -0.375,1.6875 -0.375,0.65625 -1.17187,1 l -0.46875,-0.71875 q 0.53125,-0.21875 0.78125,-0.67188 0.25,-0.45312 0.28125,-1.29687 l -0.95313,0 z m 9.53851,-4.375 1.6875,-0.14063 q 0.125,1.01563 0.5625,1.67188 0.4375,0.65625 1.35938,1.0625 0.9375,0.40625 2.09375,0.40625 1.03125,0 1.8125,-0.3125 0.79687,-0.3125 1.1875,-0.84375 0.39062,-0.53125 0.39062,-1.15625 0,-0.64063 -0.375,-1.10938 -0.375,-0.48437 -1.23437,-0.8125 -0.54688,-0.21875 -2.42188,-0.65625 -1.875,-0.45312 -2.625,-0.85937 -0.96875,-0.51563 -1.45312,-1.26563 -0.46875,-0.75 -0.46875,-1.6875 0,-1.03125 0.57812,-1.92187 0.59375,-0.90625 1.70313,-1.35938 1.125,-0.46875 2.5,-0.46875 1.51562,0 2.67187,0.48438 1.15625,0.48437 1.76563,1.4375 0.625,0.9375 0.67187,2.14062 l -1.71875,0.125 q -0.14062,-1.28125 -0.95312,-1.9375 -0.79688,-0.67187 -2.35938,-0.67187 -1.625,0 -2.375,0.60937 -0.75,0.59375 -0.75,1.4375 0,0.73438 0.53125,1.20313 0.51563,0.46875 2.70313,0.96875 2.20312,0.5 3.01562,0.875 1.1875,0.54687 1.75,1.39062 0.57813,0.82813 0.57813,1.92188 0,1.09375 -0.625,2.0625 -0.625,0.95312 -1.79688,1.48437 -1.15625,0.53125 -2.60937,0.53125 -1.84375,0 -3.09375,-0.53125 -1.25,-0.54687 -1.96875,-1.625 -0.70313,-1.07812 -0.73438,-2.45312 z m 12.80292,4.375 0,-13.59375 1.67188,0 0,13.59375 -1.67188,0 z m 4.19171,-11.6875 0,-1.90625 1.67188,0 0,1.90625 -1.67188,0 z m 0,11.6875 0,-9.85938 1.67188,0 0,9.85938 -1.67188,0 z m 10.51982,0 0,-1.25 q -0.9375,1.46875 -2.75,1.46875 -1.1719,0 -2.17186,-0.64063 -0.98437,-0.65625 -1.53125,-1.8125 -0.53125,-1.17187 -0.53125,-2.6875 0,-1.46875 0.48438,-2.67187 0.5,-1.20313 1.46875,-1.84375 0.98433,-0.64063 2.20313,-0.64063 0.8906,0 1.5781,0.375 0.7031,0.375 1.1406,0.98438 l 0,-4.875 1.6563,0 0,13.59375 -1.5469,0 z m -5.28123,-4.92188 q 0,1.89063 0.79683,2.82813 0.8125,0.9375 1.8907,0.9375 1.0937,0 1.8593,-0.89063 0.7657,-0.89062 0.7657,-2.73437 0,-2.01563 -0.7813,-2.95313 -0.7812,-0.95312 -1.9219,-0.95312 -1.1093,0 -1.8593,0.90625 -0.75003,0.90625 -0.75003,2.85937 z m 16.01633,1.75 1.7188,0.21875 q -0.4063,1.5 -1.5156,2.34375 -1.0938,0.82813 -2.8125,0.82813 -2.1563,0 -3.4219,-1.32813 -1.2656,-1.32812 -1.2656,-3.73437 0,-2.48438 1.2656,-3.85938 1.2812,-1.375 3.3281,-1.375 1.9844,0 3.2344,1.34375 1.25,1.34375 1.25,3.79688 0,0.14062 -0.016,0.4375 l -7.3438,0 q 0.094,1.625 0.9219,2.48437 0.8281,0.85938 2.0625,0.85938 0.9062,0 1.5469,-0.46875 0.6562,-0.48438 1.0468,-1.54688 z m -5.4843,-2.70312 5.5,0 q -0.1094,-1.23438 -0.625,-1.85938 -0.7969,-0.96875 -2.0782,-0.96875 -1.1406,0 -1.9375,0.78125 -0.7812,0.76563 -0.8593,2.04688 z m 9.0944,5.875 0,-9.85938 1.5,0 0,1.5 q 0.5781,-1.04687 1.0625,-1.375 0.4843,-0.34375 1.0781,-0.34375 0.8437,0 1.7187,0.54688 l -0.5781,1.54687 q -0.6094,-0.35937 -1.2344,-0.35937 -0.5468,0 -0.9843,0.32812 -0.4219,0.32813 -0.6094,0.90625 -0.2813,0.89063 -0.2813,1.95313 l 0,5.15625 -1.6718,0 z m 6.6657,0 0,-1.90625 1.9063,0 0,1.90625 q 0,1.04687 -0.375,1.6875 -0.375,0.65625 -1.1719,1 l -0.4687,-0.71875 q 0.5312,-0.21875 0.7812,-0.67188 0.25,-0.45312 0.2813,-1.29687 l -0.9532,0 z" />
  <path
     style="fill:#000000;fill-rule:nonzero"
     inkscape:connector-curvature="0"
     id="path97"
     d="m 289.0166,431.5857 1.6875,-0.14063 q 0.125,1.01563 0.5625,1.67188 0.4375,0.65625 1.35938,1.0625 0.9375,0.40625 2.09375,0.40625 1.03125,0 1.8125,-0.3125 0.79687,-0.3125 1.1875,-0.84375 0.39062,-0.53125 0.39062,-1.15625 0,-0.64063 -0.375,-1.10938 -0.375,-0.48437 -1.23437,-0.8125 -0.54688,-0.21875 -2.42188,-0.65625 -1.875,-0.45312 -2.625,-0.85937 -0.96875,-0.51563 -1.45312,-1.26563 -0.46875,-0.75 -0.46875,-1.6875 0,-1.03125 0.57812,-1.92187 0.59375,-0.90625 1.70313,-1.35938 1.125,-0.46875 2.5,-0.46875 1.51562,0 2.67187,0.48438 1.15625,0.48437 1.76563,1.4375 0.625,0.9375 0.67187,2.14062 l -1.71875,0.125 q -0.14062,-1.28125 -0.95312,-1.9375 -0.79688,-0.67187 -2.35938,-0.67187 -1.625,0 -2.375,0.60937 -0.75,0.59375 -0.75,1.4375 0,0.73438 0.53125,1.20313 0.51563,0.46875 2.70313,0.96875 2.20312,0.5 3.01562,0.875 1.1875,0.54687 1.75,1.39062 0.57813,0.82813 0.57813,1.92188 0,1.09375 -0.625,2.0625 -0.625,0.95312 -1.79688,1.48437 -1.15625,0.53125 -2.60937,0.53125 -1.84375,0 -3.09375,-0.53125 -1.25,-0.54687 -1.96875,-1.625 -0.70313,-1.07812 -0.73438,-2.45312 z m 12.83423,8.15625 0,-13.64063 1.53125,0 0,1.28125 q 0.53125,-0.75 1.20312,-1.125 0.6875,-0.375 1.64063,-0.375 1.26562,0 2.23437,0.65625 0.96875,0.64063 1.45313,1.82813 0.5,1.1875 0.5,2.59375 0,1.51562 -0.54688,2.73437 -0.54687,1.20313 -1.57812,1.84375 -1.03125,0.64063 -2.17188,0.64063 -0.84375,0 -1.51562,-0.34375 -0.65625,-0.35938 -1.07813,-0.89063 l 0,4.79688 -1.67187,0 z m 1.51562,-8.65625 q 0,1.90625 0.76563,2.8125 0.78125,0.90625 1.875,0.90625 1.10937,0 1.89062,-0.9375 0.79688,-0.9375 0.79688,-2.92188 0,-1.875 -0.78125,-2.8125 -0.76563,-0.9375 -1.84375,-0.9375 -1.0625,0 -1.89063,1 -0.8125,1 -0.8125,2.89063 z m 8.87567,-6.8125 0,-1.90625 1.67188,0 0,1.90625 -1.67188,0 z m 0,11.6875 0,-9.85938 1.67188,0 0,9.85938 -1.67188,0 z m 4.12922,0 0,-9.85938 1.5,0 0,1.40625 q 1.09375,-1.625 3.14062,-1.625 0.89063,0 1.64063,0.32813 0.75,0.3125 1.10937,0.84375 0.375,0.51562 0.53125,1.21875 0.0937,0.46875 0.0937,1.625 l 0,6.0625 -1.67187,0 0,-6 q 0,-1.01563 -0.20313,-1.51563 -0.1875,-0.51562 -0.6875,-0.8125 -0.5,-0.29687 -1.17187,-0.29687 -1.0625,0 -1.84375,0.67187 -0.76563,0.67188 -0.76563,2.57813 l 0,5.375 -1.67187,0 z m 10.51635,0 0,-13.59375 5.10938,0 q 1.54687,0 2.48437,0.40625 0.95313,0.40625 1.48438,1.26562 0.53125,0.85938 0.53125,1.79688 0,0.875 -0.46875,1.65625 -0.46875,0.76562 -1.4375,1.23437 1.23437,0.35938 1.89062,1.23438 0.67188,0.875 0.67188,2.0625 0,0.95312 -0.40625,1.78125 -0.39063,0.8125 -0.98438,1.26562 -0.59375,0.4375 -1.5,0.67188 -0.89062,0.21875 -2.1875,0.21875 l -5.1875,0 z m 1.79688,-7.89063 2.9375,0 q 1.20312,0 1.71875,-0.15625 0.6875,-0.20312 1.03125,-0.67187 0.35937,-0.46875 0.35937,-1.1875 0,-0.67188 -0.32812,-1.1875 -0.32813,-0.51563 -0.9375,-0.70313 -0.59375,-0.20312 -2.0625,-0.20312 l -2.71875,0 0,4.10937 z m 0,6.28125 3.39062,0 q 0.875,0 1.21875,-0.0625 0.625,-0.10937 1.04688,-0.35937 0.42187,-0.26563 0.6875,-0.76563 0.26562,-0.5 0.26562,-1.14062 0,-0.76563 -0.39062,-1.32813 -0.39063,-0.5625 -1.07813,-0.78125 -0.6875,-0.23437 -1.98437,-0.23437 l -3.15625,0 0,4.67187 z m 9.88104,-3.3125 q 0,-2.73437 1.53125,-4.0625 1.26563,-1.09375 3.09375,-1.09375 2.03125,0 3.3125,1.34375 1.29688,1.32813 1.29688,3.67188 0,1.90625 -0.57813,3 -0.5625,1.07812 -1.65625,1.6875 -1.07812,0.59375 -2.375,0.59375 -2.0625,0 -3.34375,-1.32813 -1.28125,-1.32812 -1.28125,-3.8125 z m 1.71875,0 q 0,1.89063 0.82813,2.82813 0.82812,0.9375 2.07812,0.9375 1.25,0 2.0625,-0.9375 0.82813,-0.95313 0.82813,-2.89063 0,-1.82812 -0.82813,-2.76562 -0.82812,-0.9375 -2.0625,-0.9375 -1.25,0 -2.07812,0.9375 -0.82813,0.9375 -0.82813,2.82812 z m 8.17261,4.92188 3.59375,-5.125 -3.32813,-4.73438 2.09375,0 1.51563,2.3125 q 0.42187,0.65625 0.67187,1.10938 0.42188,-0.60938 0.76563,-1.09375 l 1.65625,-2.32813 1.98437,0 -3.39062,4.64063 3.65625,5.21875 -2.04688,0 -2.03125,-3.0625 -0.53125,-0.82813 -2.59375,3.89063 -2.01562,0 z m 10.875,0 0,-1.90625 1.90625,0 0,1.90625 q 0,1.04687 -0.375,1.6875 -0.375,0.65625 -1.17188,1 l -0.46875,-0.71875 q 0.53125,-0.21875 0.78125,-0.67188 0.25,-0.45312 0.28125,-1.29687 l -0.95312,0 z m 16.67913,-3.17188 1.7188,0.21875 q -0.4063,1.5 -1.5157,2.34375 -1.09372,0.82813 -2.81247,0.82813 -2.15625,0 -3.42187,-1.32813 -1.26563,-1.32812 -1.26563,-3.73437 0,-2.48438 1.26563,-3.85938 1.28125,-1.375 3.32812,-1.375 1.98438,0 3.23442,1.34375 1.25,1.34375 1.25,3.79688 0,0.14062 -0.016,0.4375 l -7.34372,0 q 0.0937,1.625 0.92188,2.48437 0.82812,0.85938 2.0625,0.85938 0.90625,0 1.54687,-0.46875 0.65625,-0.48438 1.04687,-1.54688 z m -5.48437,-2.70312 5.49997,0 q -0.10934,-1.23438 -0.62497,-1.85938 -0.79687,-0.96875 -2.07812,-0.96875 -1.14063,0 -1.9375,0.78125 -0.78125,0.76563 -0.85938,2.04688 z m 12.76627,4.375 0.2344,1.48437 q -0.7031,0.14063 -1.2656,0.14063 -0.9063,0 -1.4063,-0.28125 -0.5,-0.29688 -0.7031,-0.75 -0.2031,-0.46875 -0.2031,-1.98438 l 0,-5.65625 -1.2344,0 0,-1.3125 1.2344,0 0,-2.4375 1.6562,-1 0,3.4375 1.6875,0 0,1.3125 -1.6875,0 0,5.75 q 0,0.71875 0.078,0.92188 0.094,0.20312 0.2968,0.32812 0.2032,0.125 0.5782,0.125 0.2656,0 0.7343,-0.0781 z m 7.9646,-2.10938 1.6407,0.21875 q -0.2657,1.6875 -1.375,2.65625 -1.1094,0.95313 -2.7344,0.95313 -2.0156,0 -3.25,-1.3125 -1.2188,-1.32813 -1.2188,-3.79688 0,-1.59375 0.5157,-2.78125 0.5312,-1.20312 1.6093,-1.79687 1.0938,-0.60938 2.3594,-0.60938 1.6094,0 2.625,0.8125 1.0156,0.8125 1.3125,2.3125 l -1.625,0.25 q -0.2344,-1 -0.8281,-1.5 -0.5938,-0.5 -1.4219,-0.5 -1.2656,0 -2.0625,0.90625 -0.7812,0.90625 -0.7812,2.85938 0,1.98437 0.7656,2.89062 0.7656,0.89063 1.9844,0.89063 0.9843,0 1.6406,-0.59375 0.6562,-0.60938 0.8437,-1.85938 z m 3.3594,3.60938 0,-1.90625 1.9063,0 0,1.90625 -1.9063,0 z" />
  <path
     style="fill:#000000;fill-opacity:0;fill-rule:nonzero"
     inkscape:connector-curvature="0"
     id="path99"
     d="m 0,135.5 536,0" />
  <path
     style="fill-rule:nonzero;stroke:#3a4055;stroke-width:1;stroke-linecap:butt;stroke-linejoin:round;stroke-dasharray:1, 3"
     inkscape:connector-curvature="0"
     id="path101"
     d="m 0,135.5 536,0" />
  <path
     style="fill:#000000;fill-opacity:0;fill-rule:nonzero"
     inkscape:connector-curvature="0"
     id="path103"
     d="m 0,327.17715 536,0" />
  <path
     style="fill-rule:nonzero;stroke:#3a4055;stroke-width:1;stroke-linecap:butt;stroke-linejoin:round;stroke-dasharray:1, 3"
     inkscape:connector-curvature="0"
     id="path105"
     d="m 0,327.17715 536,0" />
</svg>
