<svg xmlns="http://www.w3.org/2000/svg" xmlns:xlink="http://www.w3.org/1999/xlink" version="1.1" x="0px" y="0px" viewBox="0 0 512 640" style="enable-background:new 0 0 512 512;" xml:space="preserve"><g><g><g><path d="M428.68,303.319h-210c-2.63,0-5.21-1.069-7.07-2.93c-1.86-1.859-2.93-4.43-2.93-7.07v-210c0-2.63,1.07-5.21,2.93-7.07     c1.86-1.86,4.43-2.93,7.07-2.93h80c5.51,0,10,4.49,10,10c0,5.52-4.49,10-10,10h-70v190h190v-190h-20c-5.52,0-10-4.48-10-10     c0-5.51,4.48-10,10-10h30c2.63,0,5.21,1.07,7.07,2.93c1.859,1.86,2.93,4.44,2.93,7.07v210c0,2.641-1.07,5.211-2.93,7.07     C433.89,302.25,431.31,303.319,428.68,303.319z M348.68,93.32c-5.52,0-10-4.48-10-10c0-5.51,4.48-10,10-10c5.51,0,10,4.49,10,10     C358.68,88.84,354.189,93.32,348.68,93.32z"/></g><g><path d="M78.68,443.319c-1.32,0-2.61-0.25-3.83-0.76c-3.75-1.55-6.17-5.18-6.17-9.24v-210c0-2.63,1.07-5.21,2.93-7.07     l65.06-65.06c1.89-1.89,4.4-2.93,7.07-2.93s5.18,1.04,7.07,2.93c3.9,3.9,3.9,10.24,0,14.14l-62.13,62.13v181.72l120-120V95.72     c-0.46-0.33-0.9-0.7-1.3-1.1c-1.89-1.89-2.93-4.4-2.93-7.07s1.04-5.18,2.93-7.07l4.23-4.23c1.89-1.89,4.4-2.93,7.07-2.93     c1.32,0,2.6,0.26,3.82,0.76c3.75,1.56,6.18,5.18,6.18,9.24v210c0,2.631-1.07,5.211-2.93,7.07l-140,140     C83.86,442.28,81.35,443.319,78.68,443.319z M179.09,132.91c-2.67,0-5.18-1.04-7.07-2.93c-3.9-3.9-3.9-10.25,0-14.15     c1.89-1.88,4.4-2.93,7.07-2.93c2.68,0,5.19,1.05,7.08,2.93c3.89,3.9,3.89,10.25,0,14.15     C184.28,131.87,181.77,132.91,179.09,132.91z"/></g><g><path d="M288.68,443.319h-210c-4.06,0-7.69-2.42-9.24-6.17c-1.55-3.75-0.7-8.029,2.17-10.899l140-140     c1.86-1.86,4.43-2.931,7.07-2.931h210c4.061,0,7.68,2.431,9.24,6.171c1.55,3.75,0.7,8.029-2.17,10.899l-4.22,4.22     c-0.011,0.011-0.011,0.011-0.011,0.011c-1.89,1.89-4.399,2.93-7.069,2.93s-5.181-1.04-7.07-2.93c-0.4-0.4-0.771-0.84-1.1-1.301     H222.82l-120,120h181.71l62.14-62.13c1.89-1.89,4.399-2.93,7.07-2.93c2.67,0,5.18,1.04,7.069,2.93c3.9,3.9,3.9,10.24,0,14.141     l-65.06,65.06C293.859,442.28,291.35,443.319,288.68,443.319z M389.09,342.899c-2.67,0-5.18-1.04-7.07-2.92     c-3.899-3.899-3.899-10.25,0-14.149c1.891-1.88,4.4-2.92,7.07-2.92s5.18,1.04,7.07,2.92c3.899,3.899,3.899,10.25,0,14.149     C394.27,341.859,391.76,342.899,389.09,342.899z"/></g><g><path d="M218.68,93.32c-5.52,0-10-4.48-10-10V59.5l-5.53,2.77c-1.4,0.7-2.91,1.05-4.46,1.05l0,0c-3.82,0-7.25-2.11-8.96-5.53     c-2.46-4.93-0.46-10.95,4.48-13.41l20-10c3.05-1.53,6.82-1.36,9.73,0.44c2.96,1.83,4.74,5.01,4.74,8.5v40     C228.68,88.84,224.19,93.32,218.68,93.32z"/></g><g><path d="M238.67,63.32c-1.56,0-3.06-0.35-4.47-1.05l-19.99-10c-2.39-1.2-4.18-3.25-5.02-5.79c-0.84-2.53-0.65-5.24,0.54-7.63     c1.71-3.41,5.14-5.53,8.96-5.53c1.56,0,3.06,0.36,4.46,1.06l20,10c2.39,1.19,4.17,3.25,5.01,5.78c0.85,2.53,0.66,5.25-0.54,7.63     C245.92,61.21,242.49,63.32,238.67,63.32z"/></g><g><path d="M468.68,303.319h-40c-5.52,0-10-4.479-10-10c0-5.51,4.48-10,10-10h23.82l-2.771-5.529     c-2.46-4.931-0.46-10.95,4.471-13.41c1.409-0.7,2.909-1.061,4.47-1.061c3.81,0,7.25,2.12,8.95,5.53l10,20     c1.56,3.12,1.399,6.76-0.44,9.73C475.35,301.55,472.17,303.319,468.68,303.319z"/></g><g><path d="M458.67,323.319c-1.561,0-3.061-0.35-4.46-1.05c-4.94-2.47-6.94-8.489-4.48-13.42l10-20c1.71-3.41,5.141-5.53,8.96-5.53     c1.551,0,3.061,0.351,4.46,1.061c4.931,2.46,6.94,8.479,4.471,13.41l-10,20C465.92,321.21,462.49,323.319,458.67,323.319z"/></g><g><path d="M71.61,478.68c-1.08,0-2.14-0.17-3.17-0.52l-21.21-7.07c-3.31-1.1-5.77-3.79-6.57-7.19c-0.8-3.39,0.19-6.899,2.66-9.359     l28.29-28.29c1.89-1.891,4.4-2.931,7.07-2.931s5.18,1.04,7.07,2.931c1.89,1.89,2.93,4.399,2.93,7.069     c0,2.671-1.04,5.181-2.93,7.07L68.9,457.24l5.87,1.949c0,0,0.01,0,0.01,0.011c2.53,0.84,4.58,2.619,5.77,5.01     c1.19,2.38,1.39,5.1,0.54,7.63C79.73,475.93,75.92,478.68,71.61,478.68z"/></g><g><path d="M50.39,471.609c-4.31,0-8.12-2.75-9.48-6.84l-7.08-21.21c-1.74-5.24,1.1-10.91,6.33-12.649     c1.03-0.351,2.09-0.521,3.16-0.521c4.31,0,8.13,2.75,9.49,6.84l7.07,21.21c0.84,2.54,0.65,5.25-0.54,7.641     c-1.2,2.39-3.25,4.17-5.78,5.01C52.53,471.439,51.47,471.609,50.39,471.609z"/></g><g><path d="M388.68,253.32c-5.52,0-10-4.48-10-10v-110h-100c-5.52,0-10-4.48-10-10c0-5.51,4.48-10,10-10h110     c2.63,0,5.21,1.07,7.07,2.93c1.859,1.86,2.93,4.44,2.93,7.07v120C398.68,248.84,394.189,253.32,388.68,253.32z"/></g></g></g><text x="0" y="527" fill="#000000" font-size="5px" font-weight="bold" font-family="'Helvetica Neue', Helvetica, Arial-Unicode, Arial, Sans-serif">Created by Flatart</text><text x="0" y="532" fill="#000000" font-size="5px" font-weight="bold" font-family="'Helvetica Neue', Helvetica, Arial-Unicode, Arial, Sans-serif">from the Noun Project</text></svg>