<?xml version="1.0" encoding="UTF-8" standalone="no"?>
<svg
   xmlns:dc="http://purl.org/dc/elements/1.1/"
   xmlns:cc="http://creativecommons.org/ns#"
   xmlns:rdf="http://www.w3.org/1999/02/22-rdf-syntax-ns#"
   xmlns:svg="http://www.w3.org/2000/svg"
   xmlns="http://www.w3.org/2000/svg"
   xmlns:sodipodi="http://sodipodi.sourceforge.net/DTD/sodipodi-0.dtd"
   xmlns:inkscape="http://www.inkscape.org/namespaces/inkscape"
   version="1.1"
   x="0px"
   y="0px"
   viewBox="0 0 512 512"
   xml:space="preserve"
   id="svg50"
   sodipodi:docname="noun_3D_2353959.svg"
   width="512"
   height="512"
   inkscape:version="1.0.2 (e86c870879, 2021-01-15, custom)"><metadata
     id="metadata56"><rdf:RDF><cc:Work
         rdf:about=""><dc:format>image/svg+xml</dc:format><dc:type
           rdf:resource="http://purl.org/dc/dcmitype/StillImage" /><dc:title></dc:title></cc:Work></rdf:RDF></metadata><defs
     id="defs54" /><sodipodi:namedview
     pagecolor="#ffffff"
     bordercolor="#666666"
     borderopacity="1"
     objecttolerance="10"
     gridtolerance="10"
     guidetolerance="10"
     inkscape:pageopacity="0"
     inkscape:pageshadow="2"
     inkscape:window-width="2105"
     inkscape:window-height="1694"
     id="namedview52"
     showgrid="false"
     inkscape:pagecheckerboard="true"
     inkscape:zoom="1.6241359"
     inkscape:cx="183.77605"
     inkscape:cy="357.78063"
     inkscape:window-x="1538"
     inkscape:window-y="325"
     inkscape:window-maximized="0"
     inkscape:current-layer="svg50" /><path
     id="path2"
     style="fill:#ffffff;fill-opacity:1;stroke:#212121;stroke-opacity:1;stroke-width:3;stroke-miterlimit:4;stroke-dasharray:none"
     d="m 218.68945,33.320312 c -0.25064,0 -0.49332,0.03276 -0.74023,0.05078 -0.0509,0.0036 -0.1015,0.0074 -0.15234,0.01172 -0.35905,0.03162 -0.71176,0.08183 -1.06055,0.150391 -0.0898,0.01734 -0.17829,0.03684 -0.26758,0.05664 -0.3267,0.07351 -0.6479,0.158789 -0.96289,0.263672 -0.0982,0.03246 -0.19384,0.06986 -0.29102,0.105468 -0.31563,0.116137 -0.62489,0.24188 -0.92578,0.388672 -0.0255,0.01251 -0.0527,0.02046 -0.0781,0.0332 l -20,10 c -4.94,2.46 -6.94047,8.478206 -4.48047,13.408203 1.71,3.420001 5.13898,5.53125 8.95898,5.53125 1.55,0 3.06094,-0.350781 4.46094,-1.050781 L 208.67969,59.5 v 19.681641 l -1.29883,1.298828 c -1.89,1.89 -2.93164,4.400312 -2.93164,7.070312 0,2.67 1.04164,5.17836 2.93164,7.06836 0.4,0.4 0.83883,0.771562 1.29883,1.101562 V 289.17969 l -120.000002,120 V 227.45898 l 62.130862,-62.13086 c 3.9,-3.89999 3.9,-10.23867 0,-14.13867 -1.89,-1.89 -4.40032,-2.92968 -7.07032,-2.92968 -2.67,0 -5.18031,1.03968 -7.07031,2.92968 l -65.060545,65.0586 c -1.86,1.86 -2.929687,4.44031 -2.929687,7.07031 v 205.86328 l -13.914063,13.91406 -1.955078,-5.86718 c -1.36,-4.09 -5.180234,-6.83985 -9.490235,-6.83985 -1.069999,0 -2.130156,0.17049 -3.160156,0.52149 -5.23,1.739 -8.070078,7.40843 -6.330078,12.64843 l 7.080078,21.21094 c 0.02169,0.0652 0.04933,0.12686 0.07227,0.19141 0.04365,0.12337 0.0905,0.24424 0.138672,0.36523 0.10937,0.27375 0.228127,0.54092 0.359375,0.80078 0.07167,0.14224 0.148466,0.27986 0.226562,0.41797 0.115503,0.20395 0.236613,0.4037 0.365235,0.59766 0.08431,0.12719 0.167892,0.25403 0.257812,0.37695 0.179031,0.24483 0.368991,0.48081 0.56836,0.70703 0.0922,0.10439 0.188623,0.2043 0.285156,0.30469 0.186062,0.19409 0.379499,0.3806 0.580078,0.55859 0.07306,0.0645 0.143729,0.13096 0.21875,0.19336 0.270089,0.22592 0.553416,0.43285 0.845703,0.62891 0.05482,0.0365 0.108439,0.0739 0.164063,0.10937 0.327542,0.21046 0.666629,0.403 1.017578,0.57422 0.01727,0.008 0.0354,0.0152 0.05273,0.0234 0.447681,0.21522 0.911496,0.39779 1.390625,0.54492 l 20.986328,6.9961 c 1.03,0.35 2.089922,0.51953 3.169922,0.51953 4.31,0 8.120469,-2.74985 9.480469,-6.83985 0.85,-2.53 0.650937,-5.2489 -0.539063,-7.6289 -1.19,-2.391 -3.241484,-4.17172 -5.771484,-5.01172 0,-0.011 -0.0098,-0.01 -0.0098,-0.01 l -5.86914,-1.94922 13.921875,-13.92187 H 288.67969 c 2.67,0 5.17836,-1.03774 7.06836,-2.92774 l 65.06054,-65.06054 c 3.9,-3.901 3.9,-10.24063 0,-14.14063 -1.889,-1.89 -4.39836,-2.92968 -7.06836,-2.92968 -2.671,0 -5.18031,1.03968 -7.07031,2.92968 L 284.5293,423.31836 H 102.82227 l 119.99804,-120 H 416.2793 c 0.329,0.461 0.70156,0.90078 1.10156,1.30078 1.889,1.89 4.39836,2.93164 7.06836,2.93164 2.67,0 5.18031,-1.04164 7.07031,-2.93164 l 0.01,-0.01 1.29101,-1.29102 h 19.67578 l -2.76562,5.53125 c -2.46,4.931 -0.45953,10.94992 4.48047,13.41992 1.399,0.7 2.89798,1.04883 4.45898,1.04883 3.82,0 7.25017,-2.1093 8.95117,-5.5293 l 10,-20 c 0.0329,-0.0657 0.0566,-0.13315 0.0879,-0.19922 0.0648,-0.1361 0.12141,-0.27401 0.17969,-0.41211 0.0912,-0.21695 0.17526,-0.43435 0.25,-0.65429 0.0537,-0.15716 0.10675,-0.31369 0.15235,-0.47266 0.0597,-0.20932 0.10499,-0.42001 0.15039,-0.63086 0.051,-0.23501 0.0972,-0.46967 0.13086,-0.70703 0.0377,-0.26906 0.0704,-0.53742 0.0859,-0.80664 0.0104,-0.17714 0.007,-0.35377 0.008,-0.53125 7.8e-4,-0.19383 6.8e-4,-0.38719 -0.01,-0.58008 -0.0103,-0.19071 -0.0275,-0.38008 -0.0488,-0.57031 -0.0201,-0.1795 -0.0485,-0.35732 -0.0781,-0.53516 -0.0323,-0.19255 -0.0597,-0.385 -0.10352,-0.57617 -0.075,-0.3301 -0.1657,-0.65597 -0.27344,-0.97656 -0.0413,-0.12195 -0.0944,-0.24047 -0.14062,-0.36133 -0.0983,-0.25891 -0.20482,-0.51345 -0.32422,-0.76367 -0.0255,-0.0533 -0.0419,-0.1091 -0.0684,-0.16211 l -10,-20 c -1.7,-3.41 -5.13922,-5.53125 -8.94922,-5.53125 -1.561,0 -3.0617,0.3625 -4.4707,1.0625 -4.931,2.46 -6.9307,8.4772 -4.4707,13.4082 l 2.77148,5.5293 H 438.67969 V 83.318359 c 0,-2.63 -1.07069,-5.210312 -2.92969,-7.070312 -1.86,-1.86 -4.44031,-2.929688 -7.07031,-2.929688 h -30 c -5.52,0 -10,4.49 -10,10 0,5.52 4.48,10 10,10 h 20 V 283.31836 h -190 V 93.318359 h 70 c 5.51,0 10,-4.48 10,-10 0,-5.51 -4.49,-10 -10,-10 h -70 V 59.507812 l 5.51953,2.761719 c 1.41,0.7 2.9107,1.050781 4.4707,1.050781 3.82,0 7.24922,-2.111246 8.94922,-5.53125 1.2,-2.379998 1.39102,-5.098906 0.54102,-7.628906 -0.84,-2.53 -2.61977,-4.589297 -5.00977,-5.779297 l -20,-10 c -0.0671,-0.03356 -0.13751,-0.0559 -0.20508,-0.08789 -0.12066,-0.05643 -0.24256,-0.106807 -0.36523,-0.158203 -0.29887,-0.127618 -0.60139,-0.240563 -0.9082,-0.337891 -0.0353,-0.01089 -0.07,-0.0227 -0.10547,-0.0332 -0.92916,-0.283358 -1.88959,-0.44336 -2.87696,-0.44336 z m 129.99024,40 c -5.52,0 -10,4.49 -10,10 0,5.52 4.48,10 10,10 5.509,10e-7 10,-4.48 10,-10 0,-5.51 -4.49,-10 -10,-10 z M 179.08984,112.90039 c -2.67,0 -5.18031,1.04969 -7.07031,2.92969 -3.9,3.9 -3.9,10.25039 0,14.15039 1.89,1.89 4.40031,2.92969 7.07031,2.92969 2.68,0 5.19008,-1.03969 7.08008,-2.92969 3.89,-3.9 3.89,-10.25039 0,-14.15039 -1.89,-1.88 -4.40008,-2.92969 -7.08008,-2.92969 z m 210,210.00977 c -2.67,0 -5.17931,1.03992 -7.07031,2.91992 -3.899,3.899 -3.899,10.24944 0,14.14844 1.89,1.88 4.40031,2.91992 7.07031,2.91992 2.67,0 5.18032,-1.03992 7.07032,-2.91992 3.899,-3.899 3.899,-10.24944 0,-14.14844 -1.89,-1.88 -4.40032,-2.91992 -7.07032,-2.91992 z" /><path
     d="m 388.68,253.32 c -5.52,0 -10,-4.48 -10,-10 v -110 h -100 c -5.52,0 -10,-4.48 -10,-10 0,-5.51 4.48,-10 10,-10 h 110 c 2.63,0 5.21,1.07 7.07,2.93 1.859,1.86 2.93,4.44 2.93,7.07 v 120 c 0,5.52 -4.491,10 -10,10 z"
     id="path38"
     style="fill:#ffffff;fill-opacity:1;stroke:#212121;stroke-opacity:1;stroke-width:3;stroke-miterlimit:4;stroke-dasharray:none" /></svg>
